<svg xmlns="http://www.w3.org/2000/svg" xmlns:xlink="http://www.w3.org/1999/xlink" xml:space="preserve" width="256" height="256"><defs><linearGradient id="a"><stop offset="0"/><stop offset="1" stop-opacity=".25"/></linearGradient><linearGradient id="g"><stop offset="0" stop-color="#110800"/><stop offset=".59" stop-color="#a65a00" stop-opacity=".8"/><stop offset="1" stop-color="#ff921e" stop-opacity="0"/></linearGradient><linearGradient id="h"><stop offset="0" stop-color="#7c7c7c"/><stop offset="1" stop-color="#7c7c7c" stop-opacity=".33"/></linearGradient><linearGradient id="i"><stop offset="0" stop-color="#7c7c7c"/><stop offset="1" stop-color="#7c7c7c" stop-opacity=".33"/></linearGradient><linearGradient id="b"><stop offset="0" stop-color="#b98309"/><stop offset="1" stop-color="#382605"/></linearGradient><linearGradient id="c"><stop offset="0" stop-color="#ebc40c"/><stop offset="1" stop-color="#ebc40c" stop-opacity="0"/></linearGradient><linearGradient id="d"><stop offset="0"/><stop offset="1" stop-opacity="0"/></linearGradient><linearGradient id="e"><stop offset="0" stop-color="#3e2a06"/><stop offset="1" stop-color="#ad780a"/></linearGradient><linearGradient id="f"><stop offset="0" stop-color="#f3cd0c"/><stop offset="1" stop-color="#f3cd0c" stop-opacity="0"/></linearGradient><linearGradient id="j"><stop offset="0" stop-color="#fefefc"/><stop offset=".75" stop-color="#fefefc"/><stop offset="1" stop-color="#d4d4d4"/></linearGradient><linearGradient id="k"><stop offset="0" stop-color="#757574" stop-opacity="0"/><stop offset=".25" stop-color="#757574"/><stop offset=".5" stop-color="#757574"/><stop offset="1" stop-color="#757574" stop-opacity="0"/></linearGradient><linearGradient id="n"><stop offset="0" stop-color="#949494" stop-opacity=".39"/><stop offset=".5" stop-color="#949494"/><stop offset="1" stop-color="#949494" stop-opacity=".39"/></linearGradient><linearGradient id="l"><stop offset="0" stop-color="#c8c8c8"/><stop offset="1" stop-color="#797978"/></linearGradient><linearGradient id="o"><stop offset="0" stop-color="#747474"/><stop offset=".13" stop-color="#8c8c8c"/><stop offset=".25" stop-color="#a4a4a4"/><stop offset=".5" stop-color="#d4d4d4"/><stop offset=".62" stop-color="#d4d4d4"/><stop offset="1" stop-color="#7c7c7c"/></linearGradient><linearGradient id="m"><stop offset="0" stop-color="#646464" stop-opacity="0"/><stop offset=".31" stop-color="#646464" stop-opacity=".58"/><stop offset=".47" stop-color="#646464"/><stop offset=".73" stop-color="#646464" stop-opacity=".26"/><stop offset="1" stop-color="#646464" stop-opacity="0"/></linearGradient><linearGradient id="p"><stop offset="0" stop-color="#020204"/><stop offset=".73" stop-color="#020204"/><stop offset="1" stop-color="#5c5c5c"/></linearGradient><linearGradient id="q"><stop offset="0" stop-color="#d2940a"/><stop offset=".75" stop-color="#d89c08"/><stop offset=".87" stop-color="#b67e07"/><stop offset="1" stop-color="#946106"/></linearGradient><linearGradient id="r"><stop offset="0" stop-color="#ad780a"/><stop offset=".12" stop-color="#d89e08"/><stop offset=".25" stop-color="#edb80b"/><stop offset=".39" stop-color="#ebc80d"/><stop offset=".53" stop-color="#f5d838"/><stop offset=".77" stop-color="#f6d811"/><stop offset="1" stop-color="#f5cd31"/></linearGradient><linearGradient id="s"><stop offset="0" stop-color="#3a2903"/><stop offset=".55" stop-color="#735208"/><stop offset="1" stop-color="#ac8c04"/></linearGradient><linearGradient id="t"><stop offset="0" stop-color="#f5ce2d"/><stop offset="1" stop-color="#d79b08"/></linearGradient><linearGradient xlink:href="#b" id="ab" x1="23.18" x2="64.31" y1="193.01" y2="262.02" gradientUnits="userSpaceOnUse" href="#b"/><linearGradient xlink:href="#c" id="af" x1="64.47" x2="77.41" y1="210.83" y2="235.21" gradientUnits="userSpaceOnUse" href="#c"/><linearGradient xlink:href="#d" id="ah" x1="146.93" x2="150.2" y1="211.96" y2="235.73" gradientUnits="userSpaceOnUse" href="#d"/><linearGradient xlink:href="#e" id="y" x1="151.5" x2="192.94" y1="253.02" y2="185.84" gradientUnits="userSpaceOnUse" href="#e"/><linearGradient xlink:href="#f" id="an" x1="162.81" x2="161.59" y1="180.67" y2="191.64" gradientUnits="userSpaceOnUse" href="#f"/><linearGradient xlink:href="#i" id="ax" x1="165.69" x2="168.27" y1="173.58" y2="173.47" gradientUnits="userSpaceOnUse" href="#i"/><linearGradient xlink:href="#k" id="az" x1="84.29" x2="89.32" y1="46.64" y2="55.63" gradientUnits="userSpaceOnUse" href="#k"/><linearGradient xlink:href="#m" id="aE" x1="83.59" x2="94.48" y1="32.51" y2="43.63" gradientUnits="userSpaceOnUse" href="#m"/><linearGradient xlink:href="#n" id="aH" x1="117.87" x2="123.66" y1="47.25" y2="54.11" gradientUnits="userSpaceOnUse" href="#n"/><linearGradient xlink:href="#o" id="aK" x1="112.9" x2="131.32" y1="36.23" y2="47.01" gradientUnits="userSpaceOnUse" href="#o"/><linearGradient xlink:href="#m" id="aM" x1="119.16" x2="131.42" y1="31.56" y2="43.14" gradientUnits="userSpaceOnUse" href="#m"/><linearGradient xlink:href="#r" id="aV" x1="78.09" x2="126.77" y1="69.26" y2="68.88" gradientUnits="userSpaceOnUse" href="#r"/><linearGradient xlink:href="#t" id="bc" x1="126.74" x2="126.74" y1="67.49" y2="71.09" gradientUnits="userSpaceOnUse" href="#t"/><linearGradient xlink:href="#e" id="z" x1="151.5" x2="192.94" y1="253.02" y2="185.84" gradientUnits="userSpaceOnUse"/><linearGradient xlink:href="#e" id="aj" x1="151.5" x2="192.94" y1="253.02" y2="185.84" gradientUnits="userSpaceOnUse"/><filter id="N" width="1.1" height="1.092" x="-.05" y="-.046"><feGaussianBlur stdDeviation="0.64 0.55"/></filter><filter id="Q" width="1.101" height="1.146" x="-.051" y="-.073"><feGaussianBlur stdDeviation=".98"/></filter><filter id="S" width="1.175" height="1.163" x="-.087" y="-.082"><feGaussianBlur stdDeviation=".68"/></filter><filter id="T" width="2.639" height="1.116" x="-.82" y="-.058"><feGaussianBlur stdDeviation="1.25"/></filter><filter id="U" width="1.984" height="2.186" x="-.492" y="-.593"><feGaussianBlur stdDeviation="1.78 2.19"/></filter><filter id="V" width="1.585" height="1.617" x="-.293" y="-.309"><feGaussianBlur stdDeviation="1.73"/></filter><filter id="W" width="1.357" height="1.32" x="-.178" y="-.16"><feGaussianBlur stdDeviation=".78"/></filter><filter id="X" width="1.203" height="1.086" x="-.101" y="-.043"><feGaussianBlur stdDeviation=".98"/></filter><filter id="Z" width="1.236" height="1.08" x="-.118" y="-.04"><feGaussianBlur stdDeviation="1.19 1.17"/></filter><filter id="ac" width="1.215" height="1.217" x="-.107" y="-.108"><feGaussianBlur stdDeviation="3.38"/></filter><filter id="ae" width="1.151" height="1.139" x="-.075" y="-.07"><feGaussianBlur stdDeviation="2.1 2.06"/></filter><filter id="ag" width="1.068" height="1.037" x="-.034" y="-.019"><feGaussianBlur stdDeviation=".32"/></filter><filter id="ai" width="1.152" height="1.136" x="-.076" y="-.068"><feGaussianBlur stdDeviation="1.95 1.9"/></filter><filter id="ak" width="1.29" height="1.286" x="-.145" y="-.143"><feGaussianBlur stdDeviation="4.12"/></filter><filter id="am" width="1.23" height="1.25" x="-.115" y="-.125"><feGaussianBlur stdDeviation="3.12 3.37"/></filter><filter id="ao" width="1.042" height="1.257" x="-.021" y="-.128"><feGaussianBlur stdDeviation=".41"/></filter><filter id="aq" width="1.401" height="1.468" x="-.2" y="-.234"><feGaussianBlur stdDeviation="2.45"/></filter><filter id="as" width="1.183" height="1.214" x="-.092" y="-.107"><feGaussianBlur stdDeviation="1.12 0.81"/></filter><filter id="av" width="1.14" height="1.3" x="-.07" y="-.15"><feGaussianBlur stdDeviation=".88"/></filter><filter id="aA" width="1.467" height="1.291" x="-.233" y="-.145"><feGaussianBlur stdDeviation=".44"/></filter><filter id="aF" width="1.048" height="1.053" x="-.024" y="-.027"><feGaussianBlur stdDeviation=".12"/></filter><filter id="aI" width="1.359" height="1.365" x="-.18" y="-.182"><feGaussianBlur stdDeviation=".45"/></filter><filter id="aN" width="1.047" height="1.051" x="-.024" y="-.026"><feGaussianBlur stdDeviation=".13"/></filter><filter id="aO" width="1.152" height="1.258" x="-.076" y="-.129"><feGaussianBlur stdDeviation="1.75"/></filter><filter id="aP" width="1.073" height="1.148" x="-.036" y="-.074"><feGaussianBlur stdDeviation="0.8 0.74"/></filter><filter id="aS" width="1.309" height="1.421" x="-.154" y="-.211"><feGaussianBlur stdDeviation=".77"/></filter><filter id="aU" width="1.068" height="1.158" x="-.034" y="-.079"><feGaussianBlur stdDeviation=".65"/></filter><filter id="aW" width="1.321" height="1.26" x="-.161" y="-.13"><feGaussianBlur stdDeviation=".73"/></filter><filter id="aZ" width="1.245" height="1.222" x="-.122" y="-.111"><feGaussianBlur stdDeviation=".1"/></filter><filter id="bb" width="1.098" height="1.187" x="-.049" y="-.093"><feGaussianBlur stdDeviation=".1"/></filter><filter id="bd" width="1.222" height="1.181" x="-.111" y="-.091"><feGaussianBlur stdDeviation=".23"/></filter><radialGradient xlink:href="#a" id="M" cx="0" cy="0" r="1" gradientTransform="matrix(19 0 0 18 61.18 121.19)" gradientUnits="userSpaceOnUse" href="#a"/><radialGradient xlink:href="#a" id="P" cx="0" cy="0" r="1" gradientTransform="matrix(23.6 0 0 18 125.74 131.6)" gradientUnits="userSpaceOnUse" href="#a"/><radialGradient xlink:href="#a" id="R" cx="0" cy="0" r="1" gradientTransform="matrix(9.35 0 0 10 94.21 127.47)" gradientUnits="userSpaceOnUse" href="#a"/><radialGradient xlink:href="#g" id="ap" cx="0" cy="0" r="1" gradientTransform="matrix(18.9901 5.08838 -5.34203 19.9367 169.71 194.53)" gradientUnits="userSpaceOnUse" href="#g"/><radialGradient xlink:href="#g" id="ar" cx="0" cy="0" r="1" gradientTransform="matrix(19.7224 -.83351 .62745 14.84675 169.71 189.89)" gradientUnits="userSpaceOnUse" href="#g"/><radialGradient xlink:href="#h" id="au" cx="0" cy="0" r="1" gradientTransform="matrix(6.37357 2.7713 -1.27998 2.94376 184.65 176.62)" gradientUnits="userSpaceOnUse" href="#h"/><radialGradient xlink:href="#j" id="ay" cx="0" cy="0" r="1" gradientTransform="matrix(10.23944 -.10723 .1642 15.67914 86.49 51.41)" gradientUnits="userSpaceOnUse" href="#j"/><radialGradient xlink:href="#l" id="aC" cx="0" cy="0" r="1" gradientTransform="matrix(6.16696 -1.0154 .93742 5.69334 84.89 43.74)" gradientUnits="userSpaceOnUse" href="#l"/><radialGradient xlink:href="#j" id="aG" cx="0" cy="0" r="1" gradientTransform="matrix(13.63327 -.42844 .49252 15.67226 118.06 51.41)" gradientUnits="userSpaceOnUse" href="#j"/><radialGradient xlink:href="#p" id="aQ" cx="0" cy="0" r="1" gradientTransform="matrix(9.25515 -6.72426 6.10121 8.3976 97.64 60.12)" gradientUnits="userSpaceOnUse" href="#p"/><radialGradient xlink:href="#q" id="aR" cx="0" cy="0" r="1" gradientTransform="matrix(25.10142 -10.34606 7.26701 17.6311 109.77 70.61)" gradientUnits="userSpaceOnUse" href="#q"/><radialGradient xlink:href="#s" id="aY" cx="0" cy="0" r="1" gradientTransform="matrix(1.32 0 0 1.42 92.11 59.88)" gradientUnits="userSpaceOnUse" href="#s"/><radialGradient xlink:href="#s" id="ba" cx="0" cy="0" r="1" gradientTransform="matrix(2.78 0 0 1.62 104.65 59.7)" gradientUnits="userSpaceOnUse" href="#s"/><clipPath id="O"><use xlink:href="#u" href="#u"/></clipPath><clipPath id="Y"><use xlink:href="#v" href="#v"/></clipPath><clipPath id="aa"><use xlink:href="#w" href="#w"/></clipPath><clipPath id="ad"><use xlink:href="#x" href="#x"/></clipPath><clipPath id="al"><path fill="url(#y)" d="M213.47 222.92c-2.26 2.68-5.4 4.45-8.53 6.05-5.33 2.71-10.86 5.1-15.87 8.37-3.36 2.19-6.46 4.76-9.36 7.53-2.48 2.37-4.83 4.9-7.61 6.91-2.81 2.03-6.05 3.5-9.48 4.01-.95.14-1.9.21-2.86.21-3.24 0-6.48-.78-9.46-2.08-2.7-1.17-5.3-2.86-6.86-5.36-1.56-2.52-1.92-5.59-1.92-8.56-.01-5.23.96-10.41 1.87-15.57.76-4.29 1.48-8.58 1.95-12.91.85-7.86.84-15.81.28-23.71-.1-1.32-.21-2.65-.01-3.96s.74-2.62 1.74-3.48c.93-.8 2.17-1.16 3.4-1.22 1.22-.07 2.44.12 3.65.3 2.85.42 5.73.74 8.52 1.48 1.76.46 3.48 1.08 5.23 1.56 2.94.79 6.01 1.17 9.02.82 3.25-.38 6.41-1.6 9.68-1.52 1.34.03 2.67.28 3.95.69 1.3.41 2.59 1 3.55 1.98.73.74 1.24 1.67 1.62 2.64.57 1.44.88 2.98 1.01 4.52.11 1.37.09 2.76.35 4.11.43 2.21 1.6 4.24 3.04 5.97 1.45 1.74 3.18 3.21 4.91 4.66s3.46 2.89 5.32 4.16c.87.6 1.77 1.16 2.6 1.81.83.66 1.59 1.42 2.11 2.34.45.81.69 1.72.69 2.65 0 .52-.07 1.04-.23 1.56-.45 1.43-1.28 2.82-2.3 4.04" style="fill:url(#z)"/></clipPath><clipPath id="aw"><use xlink:href="#A" href="#A"/></clipPath><clipPath id="aD"><use xlink:href="#B" href="#B"/></clipPath><clipPath id="aB"><use xlink:href="#C" href="#C"/></clipPath><clipPath id="aL"><use xlink:href="#D" href="#D"/></clipPath><clipPath id="aJ"><use xlink:href="#E" href="#E"/></clipPath><clipPath id="aT"><use xlink:href="#F" href="#F"/></clipPath><clipPath id="aX"><use xlink:href="#G" href="#G"/></clipPath><clipPath id="be"><use xlink:href="#F" href="#F"/><use xlink:href="#G" href="#G"/></clipPath><pattern xlink:href="#H" id="bf" patternTransform="matrix(10.44171 0 0 10.44171 -238.109 -194.172)"/><pattern xlink:href="#I" id="H" patternTransform="matrix(10.44171 0 0 10.44171 -248.109 -204.172)"/><pattern xlink:href="#J" id="I" patternTransform="matrix(1.3688 0 0 1.3688 -15.11 -4.23)"/><pattern xlink:href="#K" id="J" patternTransform="matrix(1.3688 0 0 1.3688 -15.11 -4.23)"/><pattern xlink:href="#L" id="K" patternTransform="matrix(1.3688 0 0 1.3688 -15.11 -4.23)"/><pattern id="L" width="2" height="2" patternTransform="scale(1.44013)" patternUnits="userSpaceOnUse"><path d="M0 0h1v1H0zM1 1h1v1H1z" style="fill:#000;stroke:none"/></pattern></defs><g transform="translate(20)"><path id="u" fill="#020204" d="M106.95 0c-6 0-12.02 1.18-17.46 4.12-5.78 3.11-10.52 8.09-13.43 13.97-2.92 5.88-4.06 12.16-4.24 19.08-.33 13.14.3 26.92 1.29 39.41.26 3.8.74 6.02.25 9.93-1.62 8.3-8.88 13.88-12.76 21.17-4.27 8.04-6.07 17.13-9.29 25.65-2.95 7.79-7.09 15.1-9.88 22.95-3.91 10.97-5.08 23.03-2.5 34.39 1.97 8.66 6.08 16.78 11.62 23.73-.8 1.44-1.58 2.91-2.4 4.34-2.57 4.43-5.71 8.64-7.17 13.55-.73 2.45-1.02 5.07-.55 7.59s1.75 4.93 3.75 6.53c1.31 1.04 2.9 1.72 4.53 2.1 1.63.37 3.32.46 5 .43 6.37-.14 12.55-2.07 18.71-3.69 3.66-.96 7.34-1.81 11.03-2.58 13.14-2.69 27.8-1.61 39.99.15 4.13.63 8.23 1.44 12.29 2.43 6.36 1.54 12.69 3.5 19.23 3.69 1.72.05 3.46-.03 5.14-.4 1.68-.38 3.31-1.06 4.65-2.13 2.01-1.6 3.29-4.02 3.76-6.54s.18-5.15-.56-7.61c-1.48-4.92-4.65-9.11-7.27-13.52-1.04-1.75-2-3.53-3.03-5.28 7.9-8.87 14.26-19.13 17.94-30.4 4.01-12.3 4.75-25.55 3.06-38.38s-5.76-25.27-11.11-37.05c-6.72-14.76-12.37-20.1-16.47-33.07-4.42-14.02-.77-30.61-4.06-43.32-1.17-4.32-3.04-8.45-5.45-12.23-2.82-4.43-6.4-8.39-10.65-11.47C124.13 2.62 115.61 0 106.95 0"/><path fill="#fdfdfb" d="M83.13 74c-.9 1.13-1.48 2.49-1.84 3.89-.35 1.4-.48 2.85-.54 4.3-.11 2.89.07 5.83-.7 8.62-.82 2.98-2.65 5.57-4.44 8.08-3.11 4.36-6.25 8.84-7.78 13.97a24.8 24.8 0 0 0-.91 9.62c-3.47 5.1-6.48 10.53-8.98 16.18-3.78 8.57-6.37 17.69-7.28 27.01-1.12 11.41.34 23.15 4.85 33.69 3.25 7.63 8.11 14.6 14.38 20.04a49.2 49.2 0 0 0 10.5 6.97c13.11 6.45 29.31 6.46 42.2-.41 6.74-3.59 12.43-8.84 17.91-14.15 3.3-3.2 6.59-6.48 9.11-10.32 4.85-7.41 6.54-16.41 7.59-25.2 1.83-15.36 1.89-31.6-4.85-45.53-2.32-4.8-5.41-9.22-9.12-13.05-.98-6.7-2.93-13.27-5.76-19.42-2.05-4.45-4.54-8.68-6.44-13.18-.78-1.85-1.46-3.75-2.32-5.56-.87-1.81-1.93-3.55-3.39-4.94-1.48-1.42-3.33-2.43-5.28-3.07-1.95-.65-4.01-.94-6.06-1.04-4.11-.21-8.22.33-12.33.16-3.27-.13-6.53-.7-9.8-.51-1.63.1-3.26.39-4.78 1.01-1.52.61-2.92 1.56-3.94 2.84"/><path fill="url(#M)" d="M68.67 115.18c.87 1.31-.55 5.84 19.86 2.94 0 0-3.59.39-7.12 1.21-5.49 1.84-10.27 3.89-13.97 6.61-3.65 2.7-6.33 6.21-9.68 9.22 0 0 5.43-9.92 6.78-12.91 1.36-2.99-.22-2.85.85-7.25s3.69-8.63 3.69-8.63-2.14 6.22-.41 8.81" clip-path="url(#O)" filter="url(#N)" opacity=".25" style="fill:url(#M)"/><path fill="url(#P)" d="M134.28 113.99c-4.16 2.9-6.6 2.56-11.64 3.12-5.05.57-18.7.36-18.7.36s1.97-.03 6.36.78c4.38.82 13.31 1.6 18.34 3.51 5.04 1.92 6.87 2.47 9.93 4.4 4.35 2.75 7.55 7.06 11.71 10.08 0 0 .2-4-1.48-6.99s-6.2-7.7-7.53-12.1c-1.32-4.4-1.96-13.04-1.96-13.04s-.88 6.99-5.03 9.88" clip-path="url(#O)" filter="url(#Q)" opacity=".42" style="fill:url(#P)"/><path fill="url(#R)" d="M95.17 107.81c-.16 1.25-.36 2.5-.6 3.74-.12.61-.26 1.22-.48 1.8-.23.58-.56 1.14-1.02 1.55-.41.37-.9.62-1.4.85-1.94.88-4.01 1.47-6.12 1.74.84.06 1.68.14 2.53.23.53.06 1.06.12 1.57.25.52.14 1.03.34 1.46.65.47.35.84.82 1.12 1.34.55 1.02.73 2.2.83 3.37.13 1.48.14 2.98.03 4.46.1-.99.31-1.98.62-2.92.57-1.72 1.47-3.32 2.69-4.65.49-.52 1.02-1.01 1.6-1.42a8.86 8.86 0 0 1 6.24-1.51c-2.21.09-4.44-.6-6.2-1.93-.9-.68-1.68-1.52-2.22-2.5a7 7 0 0 1-.65-5.05" clip-path="url(#O)" filter="url(#S)" opacity=".2" style="fill:url(#R)"/><path d="M89.85 137.14a75.4 75.4 0 0 0-2.17 12.31c-.55 5.87-.42 11.78-.74 17.67-.26 4.99-.85 10.04.02 14.97a25.3 25.3 0 0 0 2.2 6.78c.16-.82.29-1.64.36-2.47.37-4-.3-8.01-.53-12.01-.4-7.02.57-14.04.97-21.06.3-5.39.27-10.8-.11-16.19" clip-path="url(#O)" filter="url(#T)" opacity=".11"/><path fill="#7c7c7c" d="M160.08 131.23c1.03-.16 7.34 5.21 6.48 7.21-.86 1.99-2.49.79-3.65.8-1.16.02-4.33 1.46-4.86.55-.54-.91 1.4-3.03 2.41-4.81.82-1.43-1.4-3.59-.38-3.75" clip-path="url(#O)" filter="url(#U)" opacity=".75"/><path fill="#7c7c7c" d="M121.52 11.12c-2.21 1.56-1.25 3.51-.3 5.46.95 1.96-2.09 7.59-2.12 7.83s5.98-2.85 7.62-4.87c1.94-2.37 6.83 3.22 6.56 2.37.01-1.52-9.55-12.34-11.76-10.79" clip-path="url(#O)" filter="url(#V)"/><path fill="#838384" d="M138.27 76.63c-1.86 1.7.88 4.25 2.17 7.24.81 1.86 3.04 4.49 5.2 4.07 1.63-.32 2.63-2.66 2.48-4.3-.3-3.18-2.98-3.93-4.93-5.02-1.54-.86-3.61-3.18-4.92-1.99" clip-path="url(#O)" filter="url(#W)"/></g><g transform="translate(20)"><path id="v" fill="#020204" d="M63.98 100.91c-6.1 6.92-12.37 13.63-15.81 21.12-1.71 3.8-2.51 7.93-3.68 11.93-1.32 4.54-3.12 8.94-5.14 13.22-1.87 3.95-3.93 7.81-5.98 11.66-1.5 2.81-3.02 5.67-3.54 8.81-.41 2.48-.18 5.04.46 7.47.63 2.43 1.64 4.75 2.79 6.98 4.88 9.55 12.21 17.77 20.89 24.07 3.94 2.85 8.15 5.32 12.58 7.35 2.4 1.09 4.92 2.07 7.56 2.11 1.32.03 2.65-.19 3.86-.72 1.2-.53 2.28-1.38 3-2.49.88-1.36 1.18-3.05 1-4.66s-.81-3.15-1.65-4.53c-2.06-3.38-5.31-5.83-8.44-8.25a283 283 0 0 1-19.55-16.58c-1.76-1.65-3.53-3.34-4.76-5.42-1.2-2.02-1.85-4.32-2.29-6.63-1.21-6.33-.9-12.99 1.25-19.07.85-2.38 1.96-4.65 3.04-6.93 1.86-3.95 3.62-7.98 6.07-11.6 3.05-4.51 7.13-8.33 9.61-13.17 2.1-4.09 2.95-8.68 3.76-13.2.64-3.54 1.85-7 2.47-10.54-1.21 2.3-5.11 6.07-7.5 9.07"/><path fill="#7c7c7c" d="M56.96 126.1c-2 1.84-3.73 3.97-5.13 6.31-2.3 3.84-3.65 8.16-5.33 12.31-1.24 3.09-2.69 6.2-2.86 9.53-.09 1.71.16 3.42.22 5.13s-.1 3.49-.94 4.98a6.05 6.05 0 0 1-3.22 2.71c1.83.61 3.45 1.79 4.6 3.33.96 1.3 1.58 2.81 2.41 4.18.68 1.12 1.51 2.16 2.54 2.97 1.02.82 2.25 1.4 3.54 1.56 1.79.23 3.65-.36 4.97-1.58-1.66-15.55-.14-31.42 4.44-46.37.29-.94.59-1.89.67-2.87.07-.99-.12-2.03-.72-2.81a2.99 2.99 0 0 0-2.77-1.17c-.52.06-1.03.26-1.45.57-.42.32-.76.74-.97 1.22" clip-path="url(#Y)" filter="url(#X)" opacity=".95"/></g><g transform="translate(20)"><path id="w" fill="#020204" d="M162.76 127.12c5.24 4.22 8.57 10.59 9.6 17.24.8 5.18.28 10.51-.89 15.62-1.17 5.12-2.97 10.06-4.77 15-.71 1.96-1.43 3.95-1.71 6.02-.29 2.08-.11 4.27.89 6.11 1.15 2.11 3.29 3.56 5.59 4.24 2.27.68 4.72.66 7.02.09s6.17-1.31 8.04-2.77c4.75-3.69 5.88-10.1 7.01-15.72 1.17-5.87.6-12.02-.43-17.95-1.41-8.09-3.78-15.99-6.79-23.62a82.3 82.3 0 0 0-8.44-15.96c-3.32-4.89-8.02-8.7-11.5-13.48-1.21-1.66-2.66-3.38-3.84-5.06-2.56-3.62-1.98-2.94-3.57-5.29-1.15-1.7-2.97-2.28-4.88-3.02-1.92-.74-4.06-.96-6.04-.41-2.6.73-4.73 2.79-5.86 5.24-1.13 2.46-1.33 5.28-.89 7.95.57 3.44 2.14 6.64 3.92 9.64 2 3.39 4.32 6.66 7.35 9.18 3.16 2.63 6.98 4.37 10.19 6.95"/><path fill="#838384" d="M150.42 118.99c.42.4.86.81 1.31 1.19 3.22 2.63 4.93 5.58 8.2 8.16 5.34 4.22 10.75 11.5 11.8 18.15.82 5.19-.26 8.01-1.58 14.12-1.32 6.12-5.06 14.78-7.09 20.68-.8 2.35 1.64 1.38 1.32 3.86-.16 1.22-.18 2.45-.03 3.67.02-.23.03-.48.06-.71.39-3.38 1.42-6.63 2.55-9.82 2.17-6.13 4.66-12.15 6.38-18.45 1.72-6.29 1.53-10.82.63-16.23-1.13-6.81-5.09-13.09-10.69-17.24-3.97-2.93-8.64-4.81-12.86-7.38" clip-path="url(#aa)" filter="url(#Z)"/></g><g transform="translate(20)"><path id="x" fill="url(#ab)" d="M34.98 175.33c1.38-.57 2.93-.68 4.39-.41 1.47.27 2.86.91 4.09 1.74 2.47 1.68 4.3 4.12 6.05 6.54 4.03 5.54 7.9 11.2 11.42 17.08 2.85 4.78 5.46 9.71 8.76 14.18 2.15 2.93 4.57 5.64 6.73 8.55 2.16 2.92 4.07 6.08 5.03 9.58 1.25 4.55.76 9.56-1.4 13.75-1.52 2.95-3.86 5.48-6.7 7.19S67.52 256 64.2 256c-5.27 0-10.42-2.83-15.32-4.78-9.98-3.98-20.82-5.22-31.11-8.32-3.16-.95-6.27-2.08-9.45-2.95-1.42-.39-2.85-.73-4.19-1.34-1.34-.6-2.59-1.51-3.33-2.77-.57-.98-.8-2.13-.8-3.26 0-1.14.28-2.26.67-3.32.77-2.13 2.02-4.06 2.86-6.17 1.37-3.44 1.62-7.23 1.43-10.93-.18-3.69-.78-7.36-1.03-11.05-.12-1.65-.16-3.32.16-4.95.31-1.62 1.01-3.21 2.2-4.35 1.1-1.06 2.55-1.69 4.05-2 1.49-.31 3.03-.32 4.55-.29s3.05.12 4.57-.01c1.52-.12 3.05-.46 4.37-1.22 1.26-.72 2.29-1.79 3.14-2.96s1.54-2.45 2.25-3.72c.7-1.26 1.43-2.52 2.36-3.64.92-1.12 2.06-2.09 3.4-2.64" style="fill:url(#ab)"/><path fill="#d99a03" d="M37.16 177.7c1.25-.5 2.67-.56 3.98-.26 1.32.3 2.55.94 3.61 1.77 2.14 1.65 3.62 3.97 5.05 6.26 3.42 5.54 6.76 11.15 9.92 16.86 2.4 4.31 4.68 8.7 7.62 12.65 1.95 2.62 4.18 5.03 6.17 7.62s3.76 5.41 4.64 8.56c1.14 4.05.68 8.54-1.28 12.26-1.42 2.68-3.58 4.96-6.2 6.48a15.94 15.94 0 0 1-8.69 2.14c-4.82-.22-9.23-2.63-13.77-4.26-8.71-3.16-18.14-3.59-27.08-6.05-3.2-.87-6.32-2.03-9.53-2.84-1.43-.36-2.88-.66-4.23-1.23s-2.62-1.45-3.36-2.72c-.54-.95-.76-2.06-.73-3.15.04-1.09.31-2.17.7-3.19.78-2.04 2-3.88 2.78-5.92 1.19-3.08 1.34-6.47 1.12-9.76s-.8-6.56-1-9.85c-.08-1.48-.1-2.97.2-4.41.3-1.45.93-2.85 1.98-3.89 1.14-1.13 2.7-1.74 4.29-1.99 1.58-.24 3.19-.13 4.78.01 1.6.14 3.2.32 4.8.23 1.6-.1 3.22-.49 4.54-1.39 1.2-.81 2.1-2 2.79-3.27s1.18-2.64 1.71-3.98c.52-1.35 1.09-2.69 1.91-3.89.82-1.19 1.93-2.24 3.28-2.79" clip-path="url(#ad)" filter="url(#ac)"/><path fill="#f5bd0c" d="M35.99 174.57c1.22-.6 2.65-.72 3.98-.45s2.57.92 3.62 1.77c2.09 1.7 3.43 4.13 4.67 6.51 2.84 5.46 5.5 11.04 8.9 16.19 2.48 3.73 5.33 7.2 7.83 10.92 3.39 5.03 6.15 10.57 7.29 16.5.76 4 .74 8.31-1.18 11.9-1.27 2.37-3.32 4.31-5.75 5.52-2.42 1.22-5.21 1.71-7.92 1.47-4.27-.37-8.14-2.47-12.16-3.94-7.13-2.59-14.84-3.22-22.18-5.18-3.09-.82-6.13-1.89-9.26-2.54-1.39-.29-2.8-.5-4.12-1s-2.57-1.33-3.25-2.55c-.47-.86-.63-1.86-.56-2.84.07-.97.36-1.92.74-2.83.77-1.8 1.9-3.46 2.49-5.32.88-2.75.52-5.72-.14-8.53-.65-2.8-1.6-5.55-1.89-8.41-.13-1.27-.13-2.57.17-3.82.29-1.25.88-2.45 1.81-3.34 1.2-1.15 2.88-1.73 4.56-1.89 1.67-.16 3.35.06 5.01.3s3.34.5 5.01.42c1.68-.07 3.39-.51 4.7-1.54 1.3-1.02 2.12-2.53 2.59-4.09.47-1.57.62-3.2.81-4.82s.43-3.26 1.06-4.77 1.69-2.9 3.17-3.64" clip-path="url(#ad)" filter="url(#ae)"/><path fill="url(#af)" d="M51.2 188.21c2.25 4.06 3.62 8.72 5.85 12.82 2.05 3.77 4.38 7.65 6.46 11.12.93 1.55 3.09 3.93 5.27 7.62 1.98 3.34 3.98 8.01 5.1 9.58-.64-1.84-1.96-6.77-3.54-10.28-1.47-3.28-3.19-5.15-4.24-6.92-2.08-3.47-4.33-6.6-6.47-9.91-2.95-4.57-5.2-9.68-8.43-14.03" clip-path="url(#ad)" filter="url(#ag)" style="fill:url(#af)"/></g><path fill="url(#ah)" d="M198.7 215.61c-.4 1.33-1.02 2.62-1.81 3.8-1.75 2.59-4.3 4.55-6.84 6.35-4.33 3.07-8.85 5.89-12.89 9.38-2.7 2.34-5.17 4.97-7.45 7.73-1.95 2.36-3.79 4.84-6.02 6.94-2.25 2.12-4.89 3.84-7.74 4.77-3.47 1.13-7.13 1.08-10.47.22-2.34-.6-4.63-1.64-6.08-3.53s-1.92-4.44-2.09-6.94c-.3-4.42.23-8.93.71-13.42.4-3.73.77-7.46.92-11.18.27-6.77-.18-13.47-1.09-20.05-.16-1.11-.32-2.22-.23-3.35.09-1.14.47-2.32 1.27-3.2.74-.81 1.77-1.29 2.79-1.52 1.02-.24 2.06-.25 3.09-.28 2.43-.06 4.86-.21 7.25.01 1.51.13 2.99.41 4.49.55 2.51.24 5.12.12 7.64-.62 2.71-.8 5.29-2.29 8.05-2.7 1.13-.17 2.26-.15 3.36.01 1.12.15 2.24.46 3.1 1.15.66.52 1.14 1.23 1.51 1.99.56 1.14.9 2.39 1.1 3.68.17 1.14.24 2.31.53 3.41.48 1.81 1.58 3.35 2.89 4.6 1.32 1.25 2.85 2.24 4.39 3.22 1.53.97 3.07 1.93 4.7 2.73.77.38 1.56.72 2.29 1.15.74.44 1.42.97 1.91 1.67.66.95.92 2.2.72 3.43" clip-path="url(#O)" filter="url(#ai)" opacity=".2" style="fill:url(#ah)" transform="translate(20)"/><path fill="url(#y)" d="M213.47 222.92c-2.26 2.68-5.4 4.45-8.53 6.05-5.33 2.71-10.86 5.1-15.87 8.37-3.36 2.19-6.46 4.76-9.36 7.53-2.48 2.37-4.83 4.9-7.61 6.91-2.81 2.03-6.05 3.5-9.48 4.01-.95.14-1.9.21-2.86.21-3.24 0-6.48-.78-9.46-2.08-2.7-1.17-5.3-2.86-6.86-5.36-1.56-2.52-1.92-5.59-1.92-8.56-.01-5.23.96-10.41 1.87-15.57.76-4.29 1.48-8.58 1.95-12.91.85-7.86.84-15.81.28-23.71-.1-1.32-.21-2.65-.01-3.96s.74-2.62 1.74-3.48c.93-.8 2.17-1.16 3.4-1.22 1.22-.07 2.44.12 3.65.3 2.85.42 5.73.74 8.52 1.48 1.76.46 3.48 1.08 5.23 1.56 2.94.79 6.01 1.17 9.02.82 3.25-.38 6.41-1.6 9.68-1.52 1.34.03 2.67.28 3.95.69 1.3.41 2.59 1 3.55 1.98.73.74 1.24 1.67 1.62 2.64.57 1.44.88 2.98 1.01 4.52.11 1.37.09 2.76.35 4.11.43 2.21 1.6 4.24 3.04 5.97 1.45 1.74 3.18 3.21 4.91 4.66s3.46 2.89 5.32 4.16c.87.6 1.77 1.16 2.6 1.81.83.66 1.59 1.42 2.11 2.34.45.81.69 1.72.69 2.65 0 .52-.07 1.04-.23 1.56-.45 1.43-1.28 2.82-2.3 4.04" style="display:inline;fill:url(#aj)" transform="translate(20)"/><path fill="#cd8907" d="M213.21 216.12c-.53 1.33-1.28 2.58-2.22 3.67-2.07 2.42-4.93 4.01-7.78 5.44-4.88 2.44-9.92 4.58-14.5 7.52-3.06 1.97-5.9 4.28-8.55 6.78-2.26 2.13-4.41 4.41-6.95 6.21-2.57 1.83-5.53 3.14-8.65 3.6-3.8.56-7.72-.16-11.25-1.67-2.46-1.06-4.84-2.56-6.27-4.83-1.42-2.26-1.75-5.02-1.75-7.69-.02-4.71.87-9.37 1.71-14 .7-3.85 1.36-7.71 1.78-11.6.76-7.08.73-14.22.25-21.32-.08-1.19-.17-2.39.01-3.57s.67-2.35 1.57-3.13c.85-.73 1.99-1.05 3.11-1.1 1.11-.06 2.22.12 3.33.28 2.61.38 5.23.67 7.78 1.33 1.61.42 3.18.98 4.78 1.4 2.68.72 5.49 1.06 8.24.74 2.97-.34 5.85-1.44 8.83-1.37 1.23.03 2.44.26 3.61.62 1.19.37 2.37.9 3.25 1.78.66.67 1.11 1.51 1.48 2.38.53 1.29.89 2.67.91 4.07.03 1.46-.28 2.92-.09 4.37.16 1.17.66 2.28 1.3 3.28.63 1 1.4 1.91 2.17 2.81 1.48 1.75 2.96 3.53 4.82 4.87 2.11 1.53 4.62 2.43 6.8 3.85.65.43 1.28.91 1.74 1.54.78 1.06.98 2.5.54 3.74" clip-path="url(#al)" filter="url(#ak)" transform="translate(20)"/><path fill="#f5c021" d="M212.91 214.61c-.6 1.35-1.37 2.6-2.28 3.71-2.12 2.58-4.99 4.35-8 5.49-4.97 1.88-10.39 2.13-15.26 4.27-2.97 1.3-5.65 3.26-8.36 5.12-2.18 1.49-4.42 2.94-6.82 3.98-2.72 1.19-5.6 1.85-8.5 2.32-1.84.29-3.71.51-5.57.41s-3.72-.54-5.37-1.49c-1.24-.72-2.36-1.75-3.03-3.1-.73-1.49-.86-3.24-.85-4.94.05-4.5 1.02-8.96.99-13.47-.03-3.93-.81-7.8-1.03-11.72-.43-7.54 1.19-15.2-.24-22.59-.22-1.19-.53-2.37-.52-3.58.01-.6.1-1.21.31-1.77.22-.55.56-1.06 1.01-1.42.39-.29.84-.47 1.31-.56.46-.08.94-.06 1.41.01.93.15 1.82.51 2.73.78 2.6.78 5.35.76 8 1.35 1.66.36 3.26.97 4.91 1.41 2.75.76 5.63 1.08 8.46.75 3.04-.36 6.01-1.46 9.07-1.38 1.26.03 2.5.26 3.71.62s2.42.87 3.34 1.8c.65.67 1.13 1.52 1.51 2.4.57 1.29.96 2.69.95 4.11-.01.74-.12 1.47-.19 2.21-.06.74-.08 1.49.09 2.2.18.72.55 1.37.97 1.96s.9 1.12 1.34 1.7c1.22 1.61 2.1 3.49 3.05 5.3s2.02 3.6 3.53 4.91c2.05 1.77 4.7 2.48 6.99 3.89.67.41 1.31.89 1.78 1.55.38.52.63 1.15.73 1.81.09.65.03 1.34-.17 1.96" clip-path="url(#al)" filter="url(#am)" transform="translate(20)"/><path fill="url(#an)" d="M148.08 181.58c2.82-.76 5.22 1.38 7.27 2.99 1.32 1.13 3.24.85 4.86.9 2.69-.09 5.36.45 8.05.12 5.3-.45 10.49-1.75 15.81-1.97 2.54-.16 5.4-.31 7.59 1.17.89.62 2.2 3.23 3.07 2.25-.36-2.74-2.39-5.39-5.11-6.12-2.14-.34-4.3.25-6.46.06-6.39-.15-12.75-1.34-19.16-1-4.46.04-8.91-.17-13.37-.34-1.75-.36-2.37 1.19-3.32 1.79.25.19.34.25.77.15" clip-path="url(#al)" filter="url(#ao)" style="fill:url(#an)" transform="translate(20)"/><g transform="translate(20)"><path fill="url(#ap)" d="M185.49 187.61c-.48-.95-1.36-1.66-2.35-2.07-.98-.41-2.06-.55-3.13-.54-2.13.02-4.25.57-6.38.39-1.79-.16-3.49-.83-5.24-1.26-1.81-.44-3.73-.61-5.52-.12-1.92.52-3.61 1.81-4.67 3.49-.94 1.48-1.38 3.23-1.52 4.98s.01 3.5.19 5.25c.12 1.26.27 2.52.57 3.75.31 1.23.78 2.43 1.52 3.46 1.07 1.48 2.66 2.54 4.37 3.17 2.8 1.03 5.98.98 8.73-.15 4.88-2.12 9.01-5.92 11.52-10.6.91-1.68 1.61-3.47 2.06-5.31.18-.74.32-1.49.32-2.25.01-.75-.12-1.52-.47-2.19" clip-path="url(#al)" filter="url(#aq)" opacity=".35" style="fill:url(#ap)"/><path fill="url(#ar)" d="M185.49 184.89c-.48-.69-1.36-1.2-2.35-1.5-.98-.3-2.06-.39-3.13-.39-2.13.02-4.25.42-6.38.28-1.79-.11-3.49-.6-5.24-.9-1.81-.32-3.73-.45-5.52-.09-1.92.37-3.61 1.3-4.67 2.52-.94 1.07-1.38 2.34-1.52 3.6s.01 2.53.19 3.79c.12.91.27 1.83.57 2.72.31.89.78 1.76 1.52 2.5 1.07 1.07 2.66 1.83 4.37 2.29 2.8.75 5.98.71 8.73-.11 4.88-1.53 9.01-4.28 11.52-7.66.91-1.22 1.61-2.51 2.06-3.84.18-.54.32-1.08.32-1.62.01-.55-.12-1.11-.47-1.59" clip-path="url(#al)" filter="url(#as)" opacity=".35" style="fill:url(#ar)"/><path id="A" fill="#020204" d="M189.55 178.72c-.35-.95-.97-1.79-1.72-2.47s-1.64-1.2-2.57-1.6c-1.86-.79-3.89-1.09-5.89-1.46-1.87-.35-3.74-.78-5.62-1.1-1.96-.33-3.98-.55-5.92-.11-1.69.38-3.26 1.26-4.54 2.43s-2.28 2.63-3 4.21c-1.27 2.79-1.67 5.92-1.43 8.97.18 2.27.76 4.61 2.25 6.32 1.21 1.39 2.92 2.26 4.68 2.78 3.04.9 6.35.85 9.36-.13a24.7 24.7 0 0 0 12.35-9.29c.98-1.43 1.82-2.98 2.2-4.66.29-1.28.3-2.66-.15-3.89"/><defs><path id="at" d="M168.89 171.07c-.47.03-.93.08-1.4.17-2.99.53-5.73 2.42-7.27 5.03-1.09 1.85-1.58 4.03-1.43 6.17.07-1.5.46-2.97 1.19-4.28 1.23-2.23 3.47-3.91 5.98-4.37 1.54-.28 3.13-.11 4.68.08 1.5.19 3 .39 4.47.7 2.28.5 4.53 1.26 6.44 2.59.44.31.86.66 1.21 1.08.35.41.62.89.73 1.42.15.78-.07 1.6-.46 2.29-.39.7-.92 1.3-1.48 1.86-.46.46-.94.89-1.43 1.32 2.21-.43 4.44-1.03 6.28-2.31.77-.55 1.48-1.2 1.94-2.02.46-.83.65-1.83.43-2.75-.16-.62-.5-1.19-.92-1.67s-.93-.87-1.45-1.24a17.27 17.27 0 0 0-7.81-2.99c-1.8-.33-3.61-.61-5.42-.83-1.41-.18-2.86-.33-4.28-.25"/></defs><use xlink:href="#at" fill="url(#au)" clip-path="url(#aw)" filter="url(#av)" href="#at" style="fill:url(#au)"/><use xlink:href="#at" fill="url(#ax)" clip-path="url(#aw)" filter="url(#av)" href="#at" style="fill:url(#ax)"/></g><g transform="translate(20)"><path id="B" fill="url(#ay)" d="M84.45 38.28c-1.53.08-3 .79-4.12 1.84-1.13 1.05-1.92 2.43-2.41 3.88-.97 2.92-.75 6.08-.53 9.15.2 2.77.41 5.6 1.45 8.18.52 1.3 1.25 2.51 2.22 3.51.97.99 2.2 1.76 3.55 2.09 1.26.32 2.62.26 3.86-.13 1.25-.4 2.38-1.11 3.32-2.02 1.36-1.33 2.27-3.07 2.8-4.9s.68-3.75.65-5.66c-.04-2.38-.35-4.77-1.09-7.03-.75-2.26-1.94-4.4-3.6-6.11-.8-.83-1.72-1.55-2.75-2.06-1.04-.51-2.2-.8-3.35-.74" style="fill:url(#ay)"/><path id="C" fill="#020204" d="M80.75 50.99c-.32 1.94-.33 3.97.33 5.81.44 1.22 1.17 2.33 2.05 3.28.57.62 1.23 1.18 1.99 1.55.77.37 1.65.52 2.48.32.76-.19 1.42-.68 1.91-1.29s.82-1.34 1.05-2.09c.69-2.21.58-4.62-.11-6.83-.49-1.61-1.32-3.16-2.6-4.24-.62-.52-1.34-.93-2.12-1.11-.78-.19-1.63-.14-2.36.19-.81.37-1.44 1.07-1.85 1.86s-.62 1.67-.77 2.55"/><path fill="url(#az)" d="M84.84 49.59c.21.55.91.75 1.3 1.19.37.42.76.87.97 1.4.39 1.01-.39 2.51.43 3.23.25.22.77.23 1.02 0 .99-.9.77-2.71.38-3.99-.36-1.15-1.23-2.25-2.31-2.8-.5-.26-1.25-.47-1.68-.11-.27.24-.24.74-.11 1.08" clip-path="url(#aB)" filter="url(#aA)" style="fill:url(#az)"/><path fill="url(#aC)" d="M81.14 44.46c2.32-1.38 5.13-1.7 7.82-1.45 2.68.26 5.27 1.04 7.87 1.75 1.91.52 3.84 1 5.63 1.84 1.78.84 3.44 2.08 4.43 3.8.16.27.29.56.46.83s.37.52.62.71.57.32.88.3c.16-.01.32-.05.45-.13.14-.08.26-.2.33-.34.08-.16.11-.35.1-.53s-.05-.36-.1-.54c-.65-2.37-2.19-4.38-3.35-6.55-.7-1.3-1.28-2.66-1.98-3.96-2.43-4.45-6.42-7.94-10.95-10.21s-9.59-3.36-14.65-3.65c-5.86-.35-11.73.35-17.51 1.37-2.51.44-5.06.96-7.27 2.21-1.11.62-2.13 1.42-2.92 2.42-.8.99-1.36 2.18-1.55 3.44-.17 1.22.01 2.47.44 3.62.42 1.15 1.08 2.2 1.86 3.15 1.54 1.91 3.53 3.39 5.36 5.03 1.83 1.63 3.52 3.44 5.57 4.79 1.02.68 2.13 1.24 3.31 1.57s2.44.42 3.64.17c1.24-.25 2.4-.86 3.41-1.64 1.01-.77 1.88-1.7 2.71-2.66 1.66-1.93 3.21-4.04 5.39-5.34" clip-path="url(#aD)" style="fill:url(#aC)"/><path fill="url(#aE)" d="M90.77 36.57c2.16 2.02 3.76 4.52 4.85 7.16-.48-2.91-1.23-5.26-3.13-7.16-1.16-1.09-2.49-2.05-3.98-2.72-1.32-.59-2.77-.96-3.61-.97-.83-.02-1.03 0-1.2.01-.18.01-.31.01.23.08.54.06 1.75.39 3.05.97s2.62 1.54 3.79 2.63" filter="url(#aF)" style="fill:url(#aE)"/></g><g transform="translate(20)"><path id="D" fill="url(#aG)" d="M111.61 38.28c-2.39 1.65-4.4 3.94-5.38 6.68-1.24 3.45-.77 7.31.43 10.77 1.22 3.55 3.27 6.93 6.36 9.06 1.54 1.07 3.33 1.8 5.19 2.02 1.87.22 3.8-.09 5.47-.95 2.02-1.06 3.57-2.91 4.53-4.98.96-2.08 1.37-4.37 1.5-6.66.16-2.9-.12-5.86-1.08-8.61-1.04-2.99-2.92-5.75-5.58-7.47-1.32-.86-2.83-1.45-4.4-1.67a9.4 9.4 0 0 0-4.67.52c-.84.33-1.62.78-2.37 1.29" style="fill:url(#aG)"/><path id="E" fill="#020204" d="M117.14 45.52c-.9.06-1.78.37-2.55.85-.76.48-1.41 1.13-1.92 1.88-1.03 1.49-1.48 3.31-1.55 5.12-.05 1.35.1 2.72.55 4s1.2 2.47 2.25 3.33c1.07.89 2.42 1.42 3.81 1.49 1.39.06 2.79-.34 3.93-1.13.91-.63 1.64-1.5 2.16-2.48.52-.97.84-2.05.98-3.15.25-1.93-.03-3.95-.93-5.69-.89-1.74-2.41-3.17-4.24-3.84-.8-.29-1.65-.44-2.49-.38"/><path fill="url(#aH)" d="M122.71 53.36c1-1-.71-3.65-2.05-4.74-.97-.78-3.78-1.61-3.66-.75.12.85 1.39 1.95 2.23 2.79 1.05 1.03 3 3.18 3.48 2.7" clip-path="url(#aJ)" filter="url(#aI)" style="fill:url(#aH)"/><path fill="url(#aK)" d="M102.56 47.01c2.06-1.71 4.45-3.01 7-3.8 5.25-1.62 11.2-.98 15.84 1.97 1.6 1.01 3.03 2.27 4.52 3.45 1.48 1.17 3.06 2.27 4.85 2.9.97.34 2 .54 3.02.43.92-.09 1.81-.44 2.57-.96.76-.53 1.4-1.23 1.88-2.02.96-1.58 1.27-3.5 1.1-5.34-.33-3.69-2.41-6.94-4.15-10.21-.55-1.02-1.07-2.06-1.73-3.01-2.01-2.93-5.23-4.86-8.6-5.99s-6.93-1.54-10.46-1.98c-1.58-.2-3.17-.41-4.74-.22-1.81.22-3.51.95-5.28 1.4-.84.22-1.69.37-2.52.61s-1.65.57-2.33 1.11c-.98.79-1.6 1.98-1.87 3.21-.27 1.24-.21 2.52-.01 3.77.39 2.5 1.33 4.93 1.24 7.46-.06 1.73-.61 3.44-.54 5.17.02.51.12 1.55.21 2.05" clip-path="url(#aL)" style="fill:url(#aK)"/><path fill="url(#aM)" d="M119.93 31.18c-.41.52-.78 1.08-1.07 1.7 1.85.4 3.61 1.16 5.19 2.21 3.06 2.03 5.38 4.99 7.01 8.29.38-.42.72-.87 1.02-1.37-1.64-3.44-4-6.55-7.16-8.65-1.52-1-3.21-1.77-4.99-2.18" filter="url(#aN)" style="fill:url(#aM)"/></g><path fill-opacity=".259" d="M81.12 89.33c1.47 4.26 4.42 7.89 7.92 10.72 1.16.95 2.39 1.82 3.76 2.43 1.36.62 2.87.97 4.36.84 1.46-.12 2.85-.7 4.13-1.42s2.46-1.59 3.7-2.37c2.12-1.35 4.39-2.44 6.6-3.64 2.65-1.45 5.23-3.1 7.46-5.14 1.03-.93 1.98-1.95 3.11-2.75 1.13-.81 2.49-1.39 3.87-1.29 1.04.07 2.01.51 3.03.73.51.11 1.03.16 1.55.08.51-.08 1.01-.29 1.37-.67.44-.46.64-1.12.61-1.76-.02-.63-.24-1.25-.54-1.81-.59-1.13-1.49-2.1-1.89-3.31-.36-1.08-.29-2.24-.26-3.37.03-1.14.01-2.32-.51-3.33-.4-.76-1.07-1.37-1.83-1.77-.76-.41-1.62-.62-2.48-.7-1.72-.16-3.44.18-5.17.27-2.28.13-4.58-.15-6.87-.02-2.85.18-5.65 1-8.51 1.01-3.26.01-6.52-1.06-9.74-.55-1.39.22-2.71.72-4.03 1.16-1.33.45-2.7.84-4.1.82-1.59-.03-3.13-.58-4.72-.69-.79-.06-1.6 0-2.35.28-.74.28-1.41.79-1.78 1.5-.21.4-.31.86-.33 1.31-.02.46.04.91.15 1.36.22.88.63 1.71.96 2.55 1.2 3.07 1.46 6.42 2.53 9.53" clip-path="url(#O)" filter="url(#aO)" transform="translate(20)"/><path d="M77.03 77.2c2.85 1.76 5.41 3.93 7.56 6.39 1.99 2.29 3.68 4.89 6.29 6.58 1.83 1.2 4.04 1.87 6.28 2.08 2.63.24 5.29-.15 7.83-.84 2.35-.63 4.62-1.53 6.7-2.71 3.97-2.25 7.28-5.55 11.65-7.03.95-.33 1.94-.56 2.86-.96.92-.39 1.79-.99 2.23-1.83.42-.82.4-1.75.54-2.64.15-.96.48-1.88.66-2.83s.2-1.96-.24-2.83c-.37-.72-1.04-1.29-1.81-1.66-.77-.36-1.64-.52-2.51-.56-1.72-.08-3.43.33-5.16.47-2.28.19-4.58-.08-6.87-.01-2.85.08-5.66.67-8.51.8-3.25.14-6.49-.34-9.74-.44-1.41-.05-2.83-.03-4.21.2-1.39.22-2.75.65-3.92 1.37-1.14.69-2.07 1.64-3.11 2.45-.52.41-1.08.78-1.68 1.07-.61.28-1.28.48-1.96.51-.35.01-.71-.01-1.05.04-.59.08-1.13.39-1.47.83-.34.45-.47 1.02-.36 1.55" clip-path="url(#O)" filter="url(#aP)" opacity=".3" transform="translate(20)"/><path fill="url(#aQ)" d="M91.66 58.53c1.53-1.71 2.57-3.8 4.03-5.56.73-.88 1.58-1.69 2.57-2.26s2.15-.89 3.29-.79c1.27.11 2.46.74 3.39 1.61s1.62 1.97 2.17 3.12c.53 1.11.95 2.28 1.71 3.24.81 1.02 1.94 1.71 2.97 2.52.51.4 1.01.83 1.41 1.34.41.51.72 1.1.86 1.74.13.65.06 1.33-.16 1.95-.23.62-.61 1.18-1.09 1.64-.95.92-2.25 1.42-3.56 1.6-2.62.37-5.27-.41-7.92-.34-2.67.08-5.29 1.02-7.97.93-1.33-.05-2.69-.38-3.79-1.14-.55-.39-1.03-.88-1.38-1.45a4.1 4.1 0 0 1-.58-1.9c-.02-.64.13-1.28.39-1.86.25-.59.61-1.12 1.01-1.62.81-.99 1.8-1.81 2.65-2.77" style="fill:url(#aQ)" transform="translate(20)"/><g transform="translate(20)"><path id="F" fill="url(#aR)" d="M77.14 75.05c.06.26.15.5.28.73.23.38.57.69.93.95.36.27.75.49 1.13.72 2.01 1.27 3.65 3.04 5.11 4.92 1.95 2.52 3.68 5.31 6.29 7.14 1.84 1.3 4.04 2.03 6.28 2.26 2.63.26 5.29-.16 7.83-.91 2.35-.69 4.62-1.66 6.7-2.95 3.97-2.44 7.28-6.02 11.65-7.63.95-.35 1.94-.6 2.86-1.03.92-.44 1.79-1.08 2.23-2 .42-.88.4-1.9.54-2.87.15-1.03.48-2.03.66-3.06s.2-2.13-.24-3.08c-.37-.78-1.04-1.4-1.81-1.79-.77-.4-1.64-.58-2.51-.62-1.72-.08-3.43.36-5.16.52-2.28.21-4.58-.09-6.87-.02-2.85.09-5.66.73-8.51.87-3.25.15-6.49-.35-9.74-.48-1.41-.06-2.83-.04-4.22.2-1.39.23-2.75.71-3.91 1.51-1.13.78-2.03 1.84-3.07 2.74-.52.45-1.08.86-1.7 1.16-.61.3-1.29.49-1.98.47-.35-.01-.72-.06-1.05.04-.21.07-.4.2-.56.35-.16.16-.29.34-.41.52-.29.42-.54.87-.75 1.34" style="fill:url(#aR)"/><path fill="#d9b30d" d="M89.9 78.56a5.77 5.77 0 0 0 .56 4.11c.68 1.24 1.84 2.2 3.19 2.65 1.7.57 3.62.29 5.21-.54.93-.48 1.77-1.16 2.3-2.06.27-.44.46-.94.53-1.46.06-.51.02-1.05-.16-1.54-.2-.53-.56-1-.99-1.37a4.5 4.5 0 0 0-1.5-.82c-1.08-.36-2.77-.66-3.91-.68-2.02-.04-4.9.34-5.23 1.71" clip-path="url(#aT)" filter="url(#aS)"/></g><g transform="translate(20)"><path fill="#604405" d="M84.31 67.86c-1.16.68-2.27 1.43-3.36 2.2-.57.41-1.15.84-1.45 1.47-.21.44-.26.94-.27 1.43 0 .5.03.99-.04 1.48-.04.33-.13.66-.14.99-.01.17 0 .34.04.5.05.16.13.32.24.44.15.16.35.26.56.32s.42.09.64.14c1.01.24 1.89.86 2.66 1.56.77.69 1.47 1.48 2.28 2.13 2.18 1.78 5.07 2.52 7.89 2.56 2.82.05 5.61-.54 8.36-1.16 2.16-.49 4.32-.99 6.39-1.76 3.2-1.18 6.16-2.96 8.72-5.19 1.17-1.01 2.26-2.12 3.57-2.94 1.15-.73 2.44-1.21 3.62-1.9.11-.06.21-.13.3-.2.1-.08.18-.18.24-.28.09-.19.09-.42.03-.62s-.18-.38-.31-.55c-.15-.18-.31-.34-.49-.5-1.23-1.05-2.89-1.43-4.51-1.56-1.61-.12-3.24-.03-4.83-.3-1.5-.25-2.92-.81-4.37-1.27-1.52-.49-3.07-.87-4.64-1.13-3.71-.61-7.52-.49-11.19.27-3.49.73-6.87 2.05-9.94 3.87" clip-path="url(#aT)" filter="url(#aU)"/><path id="G" fill="url(#aV)" d="M83.94 63.95a20.8 20.8 0 0 0-4.43 4.04c-.72.89-1.38 1.86-1.74 2.94-.29.86-.39 1.76-.57 2.65-.07.33-.15.66-.14 1 0 .16.02.33.07.5.05.16.14.31.25.43.2.2.47.31.74.37.28.05.56.06.84.09 1.25.15 2.4.75 3.44 1.47 1.04.71 2 1.55 3.07 2.22 2.35 1.49 5.16 2.15 7.95 2.26 2.78.11 5.56-.31 8.3-.86 2.17-.43 4.33-.95 6.39-1.76 3.16-1.25 6.01-3.16 8.72-5.19 1.24-.92 2.46-1.87 3.57-2.94.37-.37.74-.74 1.14-1.08.4-.33.85-.62 1.35-.78.76-.24 1.58-.17 2.37-.04.59.1 1.18.23 1.78.21.3-.02.6-.07.88-.18s.54-.28.73-.52c.25-.3.38-.7.38-1.09 0-.4-.12-.79-.32-1.13-.4-.68-1.09-1.14-1.81-1.46-.99-.44-2.06-.65-3.11-.91-3.23-.78-6.37-1.93-9.34-3.41-1.48-.73-2.92-1.54-4.37-2.32-1.5-.8-3.02-1.57-4.64-2.07-3.64-1.1-7.6-.74-11.19.51a23.9 23.9 0 0 0-10.31 7.05" style="fill:url(#aV)"/><path fill="#f6da4a" d="M109.45 64.75c-.2-.24-.48-.42-.78-.51s-.62-.09-.93-.04c-.62.11-1.18.44-1.7.8-1.47 1.01-2.77 2.26-3.91 3.64-1.5 1.83-2.74 3.94-3.16 6.27-.07.39-.11.8-.07 1.19.05.4.2.79.49 1.07.24.25.58.4.92.45.35.05.71 0 1.04-.11.66-.22 1.21-.69 1.74-1.15 2.87-2.58 5.47-5.66 6.51-9.38.1-.37.19-.75.19-1.14s-.1-.78-.34-1.09" clip-path="url(#aX)" filter="url(#aW)"/><path fill="url(#aY)" d="M92.72 59.06c-.77-.25-2.03 1.1-1.62 1.79.11.19.46.43.7.3.35-.19.64-.89 1.02-1.16.25-.18.2-.84-.1-.93" filter="url(#aZ)" opacity=".8" style="fill:url(#aY)"/><path fill="url(#ba)" d="M102.56 59.42c.2.64 1.23.53 1.83.84.52.27.94.86 1.53.88.56.01 1.44-.2 1.51-.76.09-.73-.98-1.2-1.67-1.47-.89-.34-2.03-.52-2.86-.06-.19.11-.4.36-.34.57" filter="url(#bb)" opacity=".8" style="fill:url(#ba)"/></g><path fill="url(#bc)" d="M129.27 69.15a2.42 3.1 16.94 0 1-2.81 3.04 2.42 3.1 16.94 0 1-2.12-3.04 2.42 3.1 16.94 0 1 2.81-3.05 2.42 3.1 16.94 0 1 2.12 3.05" clip-path="url(#be)" filter="url(#bd)" style="fill:url(#bc)" transform="translate(20)"/><g style="display:inline"><g style="display:inline" transform="matrix(.21448 0 0 .21448 110.606 142.297)"><path d="M72.68-168.69c-4.628-.002-8.018 1.307-10.417 3.36s-3.786 4.673-5.081 7.112-2.498 4.724-4.234 6.474c-1.737 1.75-3.974 3.069-7.832 3.597-4.152.569-6.933-.091-9.279-1.302s-4.281-3.072-6.356-5.045-4.297-4.064-7.34-5.345c-3.042-1.281-6.821-1.617-11.537-.355-4.471 1.196-7.393 3.342-9.179 5.946-1.785 2.603-2.458 5.486-3.078 8.177s-1.189 5.209-2.413 7.349-3.049 4.01-6.638 5.518c-3.864 1.624-6.718 1.7-9.298 1.138s-4.924-1.854-7.44-3.223c-2.514-1.37-5.216-2.828-8.486-3.278s-7 .21-11.228 2.65c-4.01 2.312-6.28 5.136-7.33 8.113-1.051 2.977-.945 5.937-.847 8.696.097 2.76.19 5.347-.437 7.731-.629 2.385-1.905 4.653-4.981 7.04-3.312 2.568-6.05 3.38-8.688 3.505-2.637.125-5.239-.521-8.022-1.193-2.784-.671-5.768-1.377-9.043-.965s-6.709 2.023-10.162 5.473c-3.274 3.271-4.737 6.587-4.981 9.734-.245 3.148.621 5.974 1.43 8.615s1.574 5.12 1.584 7.585c.01 2.466-.633 4.985-2.987 8.086-2.534 3.339-4.97 4.834-7.485 5.637s-5.196.848-8.059.92-5.93.166-8.988 1.411-5.953 3.687-8.395 7.913c-2.317 4.008-2.874 7.597-2.295 10.7.578 3.104 2.15 5.609 3.615 7.95 1.464 2.34 2.84 4.523 3.488 6.902.647 2.379.678 4.992-.793 8.596-1.583 3.88-3.551 5.959-5.773 7.385s-4.793 2.168-7.54 2.978-5.674 1.685-8.305 3.68c-2.63 1.993-4.817 5.1-6.082 9.815-1.2 4.47-.798 8.08.564 10.928s3.525 4.865 5.546 6.747c2.02 1.883 3.921 3.644 5.163 5.774 1.241 2.13 1.936 4.633 1.448 8.496-.525 4.158-1.875 6.67-3.652 8.623s-4.077 3.342-6.52 4.836c-2.443 1.493-5.06 3.102-7.084 5.71-2.025 2.606-3.313 6.163-3.315 11.045-.002 4.628 1.317 8.01 3.37 10.408 2.052 2.399 4.663 3.795 7.102 5.09 2.439 1.296 4.724 2.499 6.475 4.235s3.077 3.974 3.606 7.831c.568 4.152-.092 6.924-1.303 9.27s-3.08 4.281-5.054 6.356c-1.973 2.075-4.073 4.307-5.354 7.349s-1.607 6.821-.346 11.537c1.196 4.472 3.352 7.394 5.955 9.18s5.478 2.457 8.169 3.077c2.69.62 5.208 1.19 7.348 2.413 2.14 1.224 4.01 3.05 5.519 6.639 1.624 3.863 1.7 6.717 1.138 9.297s-1.864 4.925-3.233 7.44-2.81 5.216-3.26 8.487.211 6.999 2.65 11.227c2.313 4.01 5.137 6.27 8.114 7.322 2.977 1.05 5.927.953 8.687.856 2.76-.098 5.347-.192 7.731.437 2.384.628 4.653 1.904 7.039 4.98 2.569 3.312 3.381 6.05 3.506 8.688.124 2.637-.513 5.239-1.184 8.023s-1.377 5.758-.965 9.033c.411 3.275 2.013 6.709 5.463 10.162 3.272 3.275 6.596 4.746 9.744 4.99 3.148.245 5.974-.62 8.614-1.43 2.64-.808 5.111-1.574 7.577-1.584 2.465-.008 4.985.633 8.086 2.987 3.338 2.534 4.834 4.97 5.637 7.485s.857 5.197.928 8.06c.072 2.862.157 5.92 1.403 8.978s3.686 5.962 7.913 8.405c4.007 2.316 7.596 2.864 10.7 2.285s5.608-2.141 7.95-3.606c2.34-1.464 4.532-2.84 6.91-3.487 2.38-.648 4.983-.68 8.588.792 3.88 1.583 5.95 3.551 7.376 5.773s2.176 4.785 2.987 7.531 1.685 5.683 3.679 8.314c1.994 2.63 5.11 4.808 9.825 6.074 4.47 1.2 8.07.806 10.918-.556s4.866-3.525 6.748-5.545 3.643-3.922 5.773-5.164 4.633-1.935 8.496-1.447c4.158.525 6.67 1.874 8.624 3.651 1.953 1.777 3.342 4.077 4.835 6.52 1.494 2.443 3.103 5.05 5.71 7.076 2.607 2.024 6.164 3.321 11.045 3.323 4.629.002 8.01-1.316 10.409-3.369 2.398-2.053 3.795-4.664 5.09-7.103s2.498-4.724 4.234-6.474 3.974-3.078 7.832-3.606c4.152-.569 6.932.09 9.279 1.302 2.346 1.21 4.28 3.071 6.356 5.045s4.297 4.082 7.34 5.363c3.041 1.281 6.821 1.598 11.537.337 4.471-1.196 7.402-3.342 9.188-5.946 1.785-2.604 2.449-5.487 3.069-8.177.62-2.691 1.189-5.2 2.413-7.34s3.049-4.01 6.638-5.518c3.863-1.624 6.718-1.71 9.297-1.148s4.925 1.873 7.44 3.242c2.515 1.37 5.208 2.81 8.478 3.26s7.008-.21 11.237-2.65c4.01-2.312 6.28-5.136 7.33-8.113 1.051-2.977.954-5.937.856-8.697s-.2-5.338.428-7.722c.629-2.384 1.905-4.661 4.981-7.048 3.312-2.568 6.05-3.381 8.688-3.506 2.637-.124 5.238.522 8.022 1.193 2.784.672 5.767 1.377 9.042.966s6.71-2.014 10.163-5.464c3.274-3.272 4.736-6.596 4.98-9.744s-.62-5.974-1.429-8.614c-.808-2.64-1.574-5.111-1.584-7.576-.008-2.466.633-4.985 2.987-8.087 2.23-2.939 4.393-4.323 6.592-5.19.008-1.476.11-2.947.237-4.417-.194.056-.378.047-.574.11-3.24 1.034-6.52 3.141-9.479 7.039-2.807 3.698-3.829 7.3-3.815 10.563.012 3.263.969 6.138 1.766 8.742s1.427 4.922 1.257 7.12c-.171 2.2-1.033 4.423-3.797 7.185-2.973 2.97-5.42 4.008-7.804 4.308s-4.84-.212-7.586-.875c-2.746-.662-5.772-1.462-9.17-1.302s-7.115 1.354-10.982 4.353c-3.669 2.846-5.579 6.06-6.41 9.215s-.661 6.175-.565 8.897.115 5.124-.62 7.203c-.733 2.08-2.15 4.003-5.536 5.955-3.64 2.1-6.27 2.477-8.65 2.15-2.382-.328-4.622-1.473-7.103-2.823s-5.19-2.9-8.514-3.625c-3.324-.724-7.218-.53-11.73 1.366-4.28 1.8-6.966 4.406-8.586 7.24-1.62 2.833-2.239 5.787-2.85 8.441s-1.221 4.984-2.468 6.802c-1.247 1.819-3.1 3.316-6.875 4.326-4.06 1.086-6.71.76-8.924-.173-2.215-.933-4.073-2.607-6.12-4.553-2.047-1.947-4.27-4.15-7.294-5.71s-6.835-2.385-11.683-1.721c-4.6.63-7.864 2.454-10.162 4.772s-3.658 5.016-4.936 7.421c-1.277 2.405-2.468 4.503-4.143 5.937s-3.868 2.388-7.777 2.386c-4.202-.002-6.661-.993-8.56-2.468-1.898-1.474-3.27-3.582-4.744-5.992s-3.038-5.113-5.554-7.403-5.991-4.058-10.846-4.671c-4.606-.582-8.235.323-11.055 1.967-2.82 1.643-4.827 3.899-6.684 5.891-1.856 1.993-3.547 3.702-5.536 4.654-1.99.951-4.348 1.322-8.123.31-4.059-1.09-6.188-2.693-7.64-4.609s-2.233-4.302-3.032-7.011c-.8-2.71-1.613-5.725-3.451-8.587s-4.73-5.473-9.261-7.322c-4.3-1.754-8.034-1.823-11.183-.965s-5.686 2.526-7.995 3.97-4.38 2.656-6.547 3.06c-2.168.404-4.539.143-7.922-1.812-3.639-2.103-5.286-4.203-6.192-6.429s-1.04-4.725-1.111-7.549-.077-5.956-1.111-9.197-3.15-6.512-7.049-9.47c-3.698-2.808-7.299-3.83-10.563-3.816-3.263.012-6.128.96-8.732 1.758-2.605.797-4.923 1.436-7.121 1.265-2.199-.17-4.423-1.032-7.185-3.797-2.97-2.973-4.017-5.428-4.316-7.813-.3-2.385.22-4.84.883-7.585.662-2.746 1.463-5.763 1.302-9.161-.16-3.398-1.353-7.116-4.353-10.982-2.846-3.67-6.06-5.58-9.215-6.41-3.156-.833-6.175-.662-8.897-.565-2.721.096-5.123.105-7.203-.629s-4.002-2.142-5.955-5.527c-2.1-3.64-2.477-6.28-2.15-8.66.329-2.381 1.464-4.613 2.815-7.094s2.9-5.2 3.624-8.523c.724-3.324.53-7.218-1.366-11.729-1.8-4.28-4.397-6.958-7.23-8.578s-5.797-2.23-8.45-2.84c-2.655-.612-4.984-1.23-6.803-2.478-1.819-1.247-3.306-3.108-4.316-6.884-1.086-4.06-.76-6.7.173-8.915.932-2.215 2.606-4.081 4.553-6.128 1.946-2.047 4.15-4.262 5.71-7.285s2.384-6.835 1.72-11.683c-.63-4.6-2.454-7.865-4.771-10.163-2.318-2.298-5.017-3.658-7.422-4.935-2.405-1.278-4.503-2.468-5.937-4.144-1.434-1.675-2.387-3.859-2.386-7.767.002-4.203.994-6.68 2.468-8.578s3.582-3.262 5.992-4.735 5.105-3.048 7.394-5.564c2.29-2.516 4.067-5.982 4.68-10.836.583-4.607-.323-8.236-1.966-11.055-1.644-2.82-3.9-4.837-5.892-6.693-1.993-1.857-3.711-3.538-4.662-5.528s-1.314-4.357-.3-8.131c1.089-4.06 2.692-6.18 4.607-7.631s4.302-2.224 7.012-3.023c2.709-.8 5.724-1.632 8.587-3.47s5.472-4.721 7.321-9.252c1.754-4.299 1.814-8.033.956-11.182s-2.517-5.686-3.961-7.995-2.656-4.38-3.06-6.548c-.404-2.167-.143-4.547 1.812-7.931 2.103-3.639 4.203-5.276 6.43-6.183 2.225-.907 4.724-1.04 7.548-1.111s5.948-.086 9.188-1.12 6.521-3.141 9.48-7.039c2.807-3.699 3.829-7.29 3.815-10.554-.013-3.264-.969-6.138-1.766-8.742-.798-2.604-1.428-4.922-1.257-7.12.17-2.2 1.033-4.423 3.797-7.186 2.973-2.97 5.429-4.016 7.813-4.316 2.385-.3 4.84.221 7.586.883 2.746.663 5.762 1.454 9.16 1.293 3.399-.16 7.116-1.344 10.982-4.343 3.67-2.846 5.58-6.06 6.411-9.216.832-3.155.66-6.174.565-8.896s-.115-5.133.619-7.212c.734-2.08 2.151-4.003 5.537-5.956 3.64-2.1 6.27-2.476 8.65-2.149 2.381.328 4.622 1.473 7.103 2.823s5.19 2.9 8.514 3.624 7.218.53 11.729-1.366c4.28-1.799 6.967-4.397 8.587-7.23s2.23-5.796 2.841-8.45 1.23-4.975 2.477-6.793 3.109-3.316 6.884-4.326c4.06-1.086 6.7-.769 8.915.164s4.082 2.616 6.129 4.562 4.261 4.15 7.284 5.71c3.024 1.56 6.836 2.376 11.684 1.712 4.6-.63 7.864-2.446 10.162-4.763s3.658-5.025 4.936-7.43c1.277-2.406 2.468-4.486 4.143-5.92 1.675-1.433 3.86-2.396 7.767-2.394 4.203.002 6.68.993 8.578 2.468 1.899 1.474 3.253 3.572 4.726 5.982 1.474 2.41 3.057 5.114 5.573 7.404s5.982 4.076 10.837 4.69c4.606.581 8.235-.342 11.054-1.986s4.828-3.9 6.684-5.892c1.857-1.992 3.548-3.701 5.537-4.653 1.99-.951 4.357-1.304 8.132-.291 4.059 1.09 6.179 2.683 7.63 4.598 1.453 1.916 2.224 4.294 3.024 7.003s1.631 5.733 3.47 8.596c1.837 2.863 4.72 5.482 9.251 7.33 4.3 1.755 8.033 1.805 11.182.948 3.15-.858 5.687-2.517 7.996-3.962 2.309-1.444 4.38-2.664 6.547-3.068 2.168-.404 4.538-.144 7.922 1.812 3.639 2.103 5.286 4.203 6.192 6.429s1.04 4.734 1.111 7.558.086 5.947 1.12 9.188c1.035 3.24 3.142 6.52 7.04 9.48 3.698 2.807 7.29 3.828 10.553 3.815 3.264-.014 6.138-.97 8.742-1.767s4.923-1.436 7.121-1.266c2.199.171 4.423 1.042 7.185 3.807 2.97 2.973 4.016 5.419 4.316 7.804.3 2.384-.22 4.84-.883 7.585-.662 2.746-1.463 5.772-1.302 9.17.16 3.398 1.353 7.106 4.352 10.973 2.846 3.669 6.06 5.588 9.216 6.42s6.175.66 8.897.564c2.721-.096 5.123-.114 7.203.62 2.079.733 4.011 2.15 5.964 5.536 2.1 3.64 2.468 6.27 2.14 8.65-.328 2.382-1.463 4.614-2.814 7.094s-2.9 5.2-3.624 8.524-.53 7.217 1.366 11.728c1.8 4.281 4.397 6.967 7.23 8.588s5.797 2.238 8.45 2.85c2.654.611 4.975 1.211 6.794 2.458s3.315 3.11 4.325 6.885c1.086 4.06.769 6.709-.164 8.924-.932 2.215-2.615 4.072-4.562 6.119s-4.15 4.27-5.71 7.294-2.375 6.835-1.711 11.683c.63 4.6 2.445 7.855 4.762 10.153s5.016 3.667 7.422 4.945 4.494 2.459 5.928 4.134 2.396 3.869 2.395 7.777c-.002 4.202-.994 6.67-2.468 8.569-1.474 1.898-3.573 3.27-5.983 4.744s-5.114 3.038-7.403 5.555c-2.29 2.516-4.077 5.99-4.69 10.845-.582 4.607.342 8.226 1.985 11.046s3.9 4.836 5.892 6.693 3.702 3.547 4.653 5.536c.952 1.99 1.305 4.348.292 8.123-1.09 4.059-2.684 6.188-4.599 7.64s-4.303 2.233-7.012 3.032c-2.709.8-5.724 1.614-8.587 3.452s-5.481 4.72-7.33 9.251c-1.755 4.3-1.805 8.043-.947 11.192.683 2.51 1.881 4.566 3.069 6.493 1.216-.195 2.443-.35 3.67-.41.273-.016.545.037.819.027-.053-.085-.102-.18-.155-.264-1.464-2.341-2.849-4.533-3.497-6.912s-.679-4.982.792-8.587c1.584-3.88 3.543-5.949 5.765-7.376 2.221-1.426 4.802-2.176 7.549-2.986 2.746-.81 5.683-1.685 8.314-3.68 2.63-1.993 4.799-5.11 6.064-9.825 1.2-4.47.807-8.07-.555-10.918s-3.526-4.865-5.546-6.748c-2.02-1.882-3.912-3.643-5.154-5.773s-1.945-4.633-1.457-8.496c.525-4.158 1.884-6.67 3.66-8.623 1.778-1.953 4.069-3.342 6.512-4.836 2.443-1.493 5.05-3.102 7.075-5.71 2.025-2.606 3.322-6.173 3.324-11.054.002-4.629-1.308-8-3.36-10.4-2.053-2.398-4.674-3.794-7.112-5.09-2.439-1.295-4.724-2.498-6.475-4.234s-3.068-3.974-3.597-7.831c-.568-4.152.092-6.933 1.303-9.28s3.071-4.28 5.044-6.355c1.974-2.075 4.065-4.307 5.346-7.35 1.28-3.041 1.616-6.82.355-11.537-1.196-4.471-3.343-7.393-5.947-9.179-2.603-1.785-5.486-2.448-8.177-3.068s-5.208-1.19-7.348-2.413c-2.14-1.224-4.01-3.05-5.519-6.639-1.624-3.863-1.7-6.717-1.138-9.297s1.855-4.925 3.224-7.44 2.828-5.217 3.278-8.487-.22-6.999-2.66-11.228c-2.312-4.01-5.127-6.28-8.104-7.33s-5.936-.953-8.696-.856c-2.76.098-5.347.2-7.731-.428s-4.653-1.905-7.04-4.981c-2.568-3.311-3.38-6.05-3.505-8.687-.125-2.638.521-5.24 1.193-8.023.671-2.783 1.377-5.767.965-9.042s-2.022-6.71-5.473-10.163c-3.271-3.274-6.596-4.736-9.743-4.98s-5.974.62-8.615 1.43c-2.64.807-5.11 1.564-7.576 1.574s-4.985-.632-8.086-2.986c-3.338-2.534-4.834-4.961-5.637-7.477s-.857-5.205-.929-8.068-.157-5.921-1.402-8.978-3.687-5.953-7.913-8.396c-4.008-2.316-7.596-2.873-10.7-2.295s-5.608 2.142-7.95 3.606c-2.34 1.464-4.523 2.84-6.902 3.488s-4.991.688-8.596-.783c-3.88-1.584-5.959-3.543-7.385-5.764s-2.168-4.803-2.978-7.55-1.685-5.683-3.679-8.313-5.11-4.8-9.825-6.065c-4.47-1.2-8.07-.816-10.918.546-2.849 1.363-4.875 3.535-6.757 5.555-1.883 2.02-3.634 3.913-5.764 5.154s-4.634 1.945-8.496 1.457c-4.158-.525-6.67-1.884-8.624-3.66-1.953-1.777-3.342-4.068-4.835-6.511-1.494-2.443-3.103-5.051-5.71-7.076s-6.164-3.321-11.046-3.323"/><circle cx="71.528" cy="63.745" r="41.736" style="display:inline;fill:none;fill-opacity:1;stroke:#000;stroke-width:.811322;stroke-miterlimit:4;stroke-dasharray:none;stroke-opacity:1" transform="matrix(4.99282 0 0 4.99282 -284.1 -245.654)"/></g><g style="display:inline" transform="matrix(.21448 0 0 .21448 110.606 142.297)"><path d="M72.094-83.617c-86.115 0-156.082 69.967-156.082 156.082S-14.02 228.421 72.094 228.421 228.05 158.58 228.05 72.465 158.21-83.617 72.094-83.617zm.38 65.699c11.465-.188 22.82.567 34.179 3.038l4.05 4.05 4.051-4.05h16.33c2.623 11.74 2.09 23.918 0 36.33H114.88l-4.051-3.924-4.177 3.925c-22.572 2.746-45.49 2.654-68.737 0l-4.051-3.925-4.05 3.925H13.61c-2.891-12.024-2.504-24.139 0-36.33h16.077l4.177 4.05 4.05-4.05c11.527-1.72 23.094-2.851 34.56-3.039zm-5.57 46.457h13.672c3.438 0 6.484 8.64 8.481 21.9l112.283-.38c-23.415 79.645-69.037 134.508-126.46 177.222C8.007 183.49-31.273 122.688-52.595 50.945l111.017-.38c1.996-13.337 5.032-22.026 8.481-22.026Z" style="display:inline;fill:url(#bf);fill-opacity:1;stroke:#000;stroke-width:4.05079;stroke-miterlimit:4;stroke-dasharray:none;stroke-opacity:1"/><path d="M73.107-79.44C34.265-43.68-5.623-9.983-63.733 4.362c2.988 15.967 6.665 31.53 11.139 46.584l111.017-.38c.07-.464.181-.812.253-1.265q.526-3.33 1.14-6.203c.262-1.232.476-2.449.759-3.544.156-.6.344-1.216.506-1.773.22-.755.404-1.48.633-2.152.032-.093.095-.161.127-.253.29-.83.581-1.589.886-2.278.32-.726.677-1.34 1.013-1.9a8.8 8.8 0 0 1 1.012-1.392c.372-.41.754-.687 1.14-.886.342-.177.66-.38 1.012-.38h13.672c.377 0 .771.181 1.139.38.038.022.088-.024.127 0 .27.157.495.499.759.76.15.155.358.191.506.38.13.156.252.325.38.506.283.412.487.863.76 1.392.369.7.663 1.506 1.012 2.405.1.258.282.487.38.76.283.792.492 1.614.76 2.532.039.132.088.245.126.38.089.311.167.687.253 1.012.327 1.22.588 2.655.887 4.051.478 2.236.993 4.693 1.392 7.342l112.283-.38a392 392 0 0 0 10-42.66C165.12-9.753 111.675-39.735 73.107-79.439Zm-.633 61.522c11.465-.188 22.82.567 34.179 3.038l4.05 4.05 4.051-4.05h16.33c2.623 11.74 2.09 23.918 0 36.33H114.88l-4.051-3.924-4.177 3.925c-22.572 2.746-45.49 2.654-68.737 0l-4.051-3.925-4.05 3.925H13.61c-2.891-12.024-2.504-24.139 0-36.33h16.077l4.177 4.05 4.05-4.05c11.527-1.72 23.094-2.851 34.56-3.039z" style="display:inline;fill:#000;fill-opacity:1;fill-rule:evenodd;stroke:#000;stroke-width:4.05079px;stroke-linecap:butt;stroke-linejoin:miter;stroke-opacity:1"/><rect width="35.472" height="179.459" x="56.039" y="28.56" rx="10.91" ry="58.569" style="display:inline;fill:none;fill-opacity:1;stroke:#000;stroke-width:4.59876;stroke-miterlimit:4;stroke-dasharray:none;stroke-opacity:1"/><rect id="bg" width="3.429" height="15.354" x="31.975" y="-4.195" rx="1.536" ry="7.677" style="display:inline;fill:none;fill-opacity:1;stroke:#000;stroke-width:4.05079;stroke-miterlimit:4;stroke-dasharray:none;stroke-opacity:1"/><use xlink:href="#bg" width="500" height="500" transform="translate(76.91)"/><path id="bh" d="M11.594 109.231c-10.576-6.023-21.345-6.275-32.433 0V75.597c11.088-8.24 21.905-7.775 32.48.409 11.09-8.216 21.81-8.184 32.386-.024v33.25c-10.576-6.024-21.345-6.276-32.433 0zm.013-33.194v33.208" style="display:inline;fill:none;fill-rule:evenodd;stroke:#000;stroke-width:4.05079px;stroke-linecap:butt;stroke-linejoin:miter;stroke-opacity:1"/><use xlink:href="#bh" width="124" height="124" style="display:inline" transform="translate(125.852 .179)"/></g><g style="display:inline" transform="matrix(.21448 0 0 .21448 110.606 142.297)"><path d="m-122.375 102.044-1.488-17.239q-.503-5.841 1.88-9.143t6.663-3.672q4.28-.369 6.772 2.274 3.435 3.635 3.928 9.357l.538 6.243 11.942-1.03q1.04-.09 1.447-.625.51-.711.415-1.823l-.343-3.972 1.774-.153 1.446 16.765-1.773.153-.302-3.5q-.09-1.04-.546-1.489t-1.165-.388l-27.88 2.406q-1.064.091-1.484.747t-.273 2.358l.222 2.578zm16.567-12.03-.41-4.754q-.39-4.516-2.442-6.352t-6.38-1.463q-3.026.26-4.569 1.3-1.542 1.038-2.173 2.843-.63 1.806-.287 5.778.226 2.625.783 3.28t1.786.549zm-19.073-27.615 2.022-18.02q.588-5.236 3.294-7.859 2.706-2.622 6.575-2.188 2.31.26 3.987 1.606t2.507 3.625q.831 2.279.785 6.955 1.297-3.27 2.325-4.444a6.6 6.6 0 0 1 2.517-1.784q1.49-.61 5.917-1.115 3.17-.361 4.392-1.036.941-.516 1.02-1.223.082-.732-.92-1.477-1.004-.745-3.7-1.191l.18-1.604q7.969 1.348 7.355 6.82-.193 1.722-1.207 2.886-1.016 1.164-2.784 1.61-1.33.352-6.8.36-3.177.001-4.584.62-1.407.618-2.391 2.156-.985 1.537-1.239 3.802l-.32 2.854 13.704 1.537q.873.099 1.277-.31.512-.516.647-1.719l.375-3.35 1.77.2-1.819 16.204-1.769-.199.384-3.42q.127-1.133-.262-1.713-.388-.581-1.167-.669l-27.88-3.128q-.895-.1-1.405.392t-.633 1.6l-.384 3.42zm17.233-8.838.463-4.128q.465-4.15-.84-6.674t-5.315-2.973q-2.76-.309-4.462.395-1.704.704-2.455 2.078-.75 1.373-1.224 5.594-.314 2.784.003 3.488.316.703 1.258.81zm-6.227-51.425q1.467-4.19 4.955-7.08t8.169-3.578q4.68-.687 9.63 1.046t8.209 5.212 4.212 7.9q.955 4.422-.473 8.498-1.396 3.988-4.803 6.718t-8.215 3.423-9.758-1.04q-4.884-1.71-8.098-5.136-3.213-3.426-4.195-7.768-.983-4.343.367-8.195m1.85.245q-1.53 4.368 1.15 8.35 2.682 3.981 10.88 6.851 8.894 3.114 13.271 1.528t5.813-5.685q1.004-2.867.219-5.581t-3.694-5.18-8.376-4.377q-5.958-2.086-9.731-2.05t-6.17 1.713a8.85 8.85 0 0 0-3.362 4.431m33.999-57.501-1.135-3.557 1.052-1.376 10.25 7.657-.952 1.245q-5.57-2.406-9.47-1.76-3.902.648-6.18 3.627-1.903 2.49-1.624 5.212t2.428 4.366q1.34 1.024 2.809 1.192t3.017-.547q1.547-.714 4.8-3.485 4.58-3.879 7.051-4.962t4.753-.803q2.28.28 4.392 1.894 3.77 2.884 4.312 7.315.54 4.432-2.53 8.448-3.301 4.319-8.529 5.371l.973 4.12-1.038 1.358-10.804-8.26 1.038-1.358q5.075 2.625 9.762 1.847 4.689-.778 7.326-4.229 2.134-2.79 1.832-5.815-.301-3.024-2.659-4.826-1.338-1.024-2.852-1.135-1.514-.112-3.297.795t-5.979 4.362Q-73.906-34.64-76.546-34q-3.725.886-7.252-1.81-3.675-2.811-4.229-6.953-.552-4.143 2.244-7.8a11.4 11.4 0 0 1 3.174-2.862q1.833-1.108 4.583-1.695m32.023-30.603-.928-3.653 1.145-.96 9.552 10.42-1.218 1.022q-5.03-3.556-8.664-4.194-4.527-.816-7.655 1.808-3.381 2.839-2.975 7.642t6.449 12.002q5.08 6.054 10.188 7.19 4.33.952 8.075-2.192 3.273-2.746 3.728-6.708.456-3.96-2.427-8.762l1.29-1.083q3.465 5.273 2.906 10.143-.56 4.87-4.706 8.35-3.363 2.822-7.59 3.49-4.23.667-8.573-1.095-4.344-1.76-7.518-5.542-3.373-4.019-4.597-9.002t-.003-9.03q1.22-4.046 4.348-6.671a12.7 12.7 0 0 1 3.885-2.238q2.14-.774 5.288-.937m11.685-11.132 14.09-7.968.877 1.55-2.417 1.366q-1.612.912-1.808 1.554t.54 1.944l13.086 23.14q.782 1.384 1.353 1.525.765.195 2.066-.541l2.707-1.53.876 1.549-14.09 7.968-.877-1.55 2.665-1.507q1.405-.795 1.585-1.441.18-.647-.604-2.031l-13.084-23.14q-.748-1.323-1.295-1.422-.848-.148-2.397.728l-2.397 1.355zm25.082-13.542 26.275-9.135 4.517 10.97-1.502.521q-2.736-4.98-5.408-6.412-2.671-1.434-5.788-.35l-6.502 2.26q-.785.273-1.04.84-.255.566.049 1.44l4.107 11.815 2.847-.99q2.287-.795 3.142-2.927.855-2.13-.21-5.555l1.547-.538 5.338 15.357-1.547.538q-1.437-3.772-3.456-4.918-2.018-1.144-4.507-.28l-2.6.904 4.582 13.183q.25.717.864.93t1.736-.175l5.134-1.785q8.361-2.907 5.93-14.023l1.614-.561L29.62-86.74l-27.329 9.5-.584-1.681 2.264-.787q1.323-.46 1.701-1.107.378-.646.074-1.52l-9.134-26.276q-.304-.875-.923-1.136-.618-.263-1.628.088l-2.712.943zm41.145-12.881 8.336-.849L64.1-98.832l-2.022-19.859q-.305-2.999-1.821-4.3-1.386-1.194-3.87-.99l-.18-1.77 12.207-1.243.18 1.77q-1.865.19-2.733.804t-1.413 2.052q-.546 1.44-.38 3.069l2.825 27.745-2.22.226-24.701-26.33 2.144 21.064q.291 2.856 1.874 4.115t4.611.998l.18 1.771-13.317 1.356-.18-1.771q2.492-.35 3.8-2.045 1.306-1.695 1.077-3.94l-2.41-23.683-.445-.384q-1.311-1.155-1.83-1.34-.72-.262-1.805-.151l-1.582.16zm47.903-3.122 28.317 3.062-.743 13.265-1.628-.176q-.346-11.807-7.142-12.542-1.37-.148-1.927.27-.56.416-.676 1.502l-3.017 27.892q-.09.85.36 1.304.453.455 1.586.577l3.516.38-.192 1.77-16.211-1.753.191-1.77 4.012.434q.802.087 1.27-.268.468-.356.54-1.016l3.06-28.294q.096-.896-.397-1.415-.493-.518-1.696-.65-3.422-.369-6.06 2.616-2.176 2.463-3.622 8.107l-1.723-.186zm38.036 5.347 15.64 4.172-.458 1.72-2.683-.716q-1.79-.477-2.379-.155-.59.321-.974 1.766l-6.852 25.686q-.41 1.536-.1 2.036.409.675 1.854 1.06l3.004.801-.459 1.72-15.64-4.172.459-1.72 2.958.79q1.56.415 2.14.079.582-.337.991-1.873l6.852-25.685q.39-1.469.07-1.922-.502-.699-2.221-1.158l-2.66-.71zm39.763 12.645 1.449.656-1.77 34.453q-.11 2.086 2.03 3.056l.995.45-.735 1.622-12.756-5.778.735-1.621 1.016.46q1.989.9 3.006.84.7-.048.983-.675.166-.367.202-.847l.415-7.993-12.626-5.719-3.255 3.216q-1.289 1.293-1.7 2.2-.48 1.06.161 2.262.642 1.203 2.522 2.054l1.081.49-.734 1.622-11.589-5.25.735-1.62q1.86.84 3.307.52 1.449-.32 3.385-2.18zm-3.418 5.878L142.01-90.877l11.308 5.122zm54.734 27.185 1.188 1.058-11.95 32.362q-.727 1.959 1.028 3.522l.815.726-1.184 1.33-10.457-9.315 1.184-1.33.833.743q1.63 1.452 2.62 1.697.682.163 1.14-.351.269-.301.444-.749l2.777-7.507-10.35-9.22-4.065 2.101q-1.615.85-2.278 1.595-.774.867-.52 2.207.254 1.338 1.796 2.712l.886.79-1.184 1.328-9.5-8.462 1.185-1.329q1.523 1.358 3.002 1.483 1.478.124 3.88-1.074zm-5.013 4.593-15.1 7.496 9.269 8.257zm25.037 16.246 16.7 23.072-10.344 8.337-.96-1.326q8.532-8.17 4.524-13.706-.807-1.115-1.49-1.25-.685-.135-1.569.505l-22.726 16.45q-.692.5-.727 1.141-.035.64.634 1.563l2.074 2.865-1.443 1.044-9.56-13.209 1.441-1.043 2.366 3.268q.474.654 1.05.763.579.11 1.117-.28l23.052-16.687q.731-.528.786-1.242.054-.713-.655-1.694-2.018-2.788-6.002-2.746-3.286.034-8.445 2.743l-1.016-1.404zm2.996 70.967q-.75.726-2.13 1.792-2.592 1.986-3.174 3.053-.583 1.066-.207 1.965.348.832 1.53 1.044 1.184.213 3.37-.65l.55 1.313q-3.951 1.628-6.444.896-2.494-.73-3.511-3.162-.945-2.254.27-4.423 1.216-2.168 6.147-4.773a24 24 0 0 1-1.45-2.172 18 18 0 0 1-1.06-2.103Q224.131 5.168 224.8.836q.669-4.333 3.774-8.013 3.103-3.68 8.073-5.76 7.05-2.952 13.958-.465 6.273 2.262 8.858 8.436 1.732 4.138 1.071 8.429-.66 4.29-3.707 7.985t-7.885 5.72q-4.422 1.85-8.556 1.69-4.132-.16-8.44-2.397m2.563-2.36q2.729.247 5.563-.296 2.835-.543 6.754-2.184 5.517-2.31 8.22-4.857 2.703-2.546 3.32-5.378.615-2.83-.54-5.59-1.136-2.715-3.571-4.23t-6.196-1.368-9.343 2.483q-3.94 1.65-6.462 3.555a21.5 21.5 0 0 0-4.42 4.5q.988-.465 1.602-.721 2.714-1.137 5.195-.13 2.48 1.008 3.662 3.832 1.192 2.846.094 5.57-.84 2.05-3.878 4.814m-3.907-1.529q3.923-1.695 5.283-3.421 1.755-2.202.673-4.785-.862-2.058-2.725-2.822-1.864-.763-3.944.107-2.058.863-3.219 3.252a8.7 8.7 0 0 0 .688 3.546 9.8 9.8 0 0 0 1.364 2.337 9.4 9.4 0 0 0 1.88 1.786m38.368 10.91 2.364 16.038-1.76.26-.475-3.218q-.19-1.291-.69-1.745-.498-.454-1.367-.327l-19.607 2.891q-3.076.454-4.57 1.226-2.206 1.14-3.279 3.47-1.071 2.33-.566 5.758.7 4.743 3.52 6.87t6.93 1.522l15.944-2.351q2.112-.312 3.162-.766 1.048-.455 1.577-1.096.53-.643.698-1.53.17-.89-.122-2.862l1.762-.26 1.935 13.126-1.761.26-.139-.94q-.326-2.206-1.67-3.112-1.346-.904-3.6-.573l-17.07 2.517q-5.589.825-9.042-1.93-3.887-3.097-4.767-9.061-.762-5.167.27-8.341 1.031-3.176 3.581-4.919 1.941-1.317 5.111-1.785l20.969-3.092q.798-.117 1.175-.737.376-.618.214-1.723l-.488-3.31zm5.312 50.313-2.404 27.714-11.857-.361.138-1.584q5.662-.462 8.062-2.315t2.686-5.14l.594-6.857q.072-.828-.34-1.292t-1.335-.545l-12.462-1.08-.26 3.003q-.21 2.412 1.387 4.063t5.156 2.079l-.141 1.632-16.198-1.405.141-1.632q4.03.23 5.9-1.144 1.871-1.375 2.099-4l.238-2.742-13.904-1.206q-.757-.066-1.203.408t-.549 1.656l-.47 5.415q-.764 8.82 10.374 11.144l-.147 1.703-12.978-1.722 2.5-28.824 1.773.153-.207 2.389q-.12 1.395.315 2.004.435.61 1.357.69l27.714 2.403q.922.08 1.414-.377.493-.459.585-1.522l.248-2.861zM-39.534 199.802l3.632-.864 1.294 1.153-8.406 9.645-1.17-1.042q2.818-5.375 2.466-9.312-.353-3.939-3.152-6.435-2.339-2.085-5.075-2.011t-4.536 2.093q-1.121 1.258-1.4 2.711-.278 1.454.319 3.05.595 1.596 3.114 5.05 3.524 4.857 4.418 7.403t.444 4.799-2.22 4.238q-3.158 3.543-7.618 3.75-4.46.205-8.234-3.159-4.057-3.616-4.714-8.908l-4.182.66-1.276-1.137 9.05-10.152 1.275 1.137q-2.998 4.862-2.575 9.596.423 4.732 3.666 7.623 2.622 2.337 5.66 2.264t5.013-2.289q1.121-1.258 1.346-2.758t-.545-3.348-3.9-6.29q-3.426-4.897-3.865-7.578-.605-3.782 2.35-7.095 3.079-3.455 7.251-3.695t7.61 2.824q1.647 1.47 2.615 3.38.967 1.912 1.345 4.697m24.282 14.053 1.329.874-7.126 33.754q-.435 2.043 1.527 3.335l.912.6-.978 1.487-11.698-7.698.979-1.487.931.613q1.825 1.2 2.839 1.3.698.061 1.076-.513.222-.337.331-.805l1.659-7.831-11.58-7.62-3.716 2.669q-1.474 1.074-2.023 1.908-.639.97-.194 2.259.445 1.287 2.17 2.422l.992.653-.978 1.487-10.628-6.994.979-1.487q1.706 1.122 3.186 1.031 1.48-.09 3.683-1.625zm-4.293 5.272-13.853 9.608 10.37 6.824zM.584 225.16l16.298 5.81q5.522 1.97 7.536 5.51t.57 7.586-4.882 5.214q-4.734 1.613-10.144-.315l-5.902-2.104-4.025 11.29q-.351.982-.033 1.575.435.76 1.486 1.135l3.756 1.339-.598 1.677-15.851-5.652.598-1.676 3.309 1.18q.983.35 1.581.122t.837-.898l9.398-26.359q.359-1.005-.064-1.66-.42-.654-2.031-1.229l-2.437-.868zm4.058 20.068 4.494 1.603q4.27 1.522 6.793.418 2.523-1.103 3.981-5.195 1.02-2.862.717-4.696t-1.684-3.158-5.136-2.662q-2.481-.885-3.308-.65-.827.233-1.242 1.396zm27.84-10.093 15.993 2.495-.274 1.759-2.744-.428q-1.83-.285-2.381.097-.553.383-.783 1.86l-4.098 26.265q-.245 1.572.115 2.036.48.627 1.956.858l3.072.479-.274 1.759-15.994-2.496.274-1.758 3.026.472q1.594.248 2.137-.147.541-.396.787-1.968l4.098-26.265q.233-1.5-.133-1.919-.574-.641-2.332-.916l-2.72-.424zm23.481 3.556 27.817.205.577 11.848-1.59-.011q-.908-5.609-2.945-7.855t-5.335-2.27l-6.883-.051q-.831-.006-1.262.442-.43.447-.437 1.373l-.092 12.508 3.014.022q2.421.018 3.941-1.703t1.665-5.305l1.638.012-.12 16.258-1.638-.012q-.09-4.035-1.607-5.791-1.518-1.755-4.152-1.775l-2.754-.02-.102 13.955q-.006.76.501 1.167.508.407 1.694.416l5.436.04q8.853.065 10.289-11.222l1.709.012-.69 13.073-28.932-.213.013-1.78 2.397.018q1.4.01 1.973-.472.574-.483.58-1.408l.205-27.817q.007-.925-.488-1.38t-1.563-.463l-2.872-.02zm33.271.419 8.149-1.95 27.008 21.896-4.645-19.413q-.701-2.931-2.377-4.02-1.533-.999-3.967-.466l-.415-1.73 11.934-2.856.415 1.731q-1.823.435-2.603 1.16-.779.723-1.127 2.222-.35 1.5.032 3.092l6.49 27.123-2.17.519-27.984-22.81 4.926 20.59q.67 2.793 2.405 3.83 1.737 1.036 4.703.376l.414 1.731-13.019 3.115-.414-1.731q2.424-.678 3.494-2.532t.545-4.048l-5.54-23.152-.492-.322q-1.452-.97-1.992-1.085-.746-.164-1.809.09l-1.546.37zm38.131-9.949 25.465-12.759 6.559 11.554-1.465.734q-6.685-9.739-12.796-6.677-1.23.617-1.474 1.27-.244.652.245 1.63l12.568 25.081q.383.764 1.01.902.626.137 1.644-.373l3.162-1.584.797 1.591-14.578 7.305-.797-1.592 3.607-1.807q.722-.362.923-.914t-.097-1.146l-12.748-25.443q-.404-.807-1.1-.976-.695-.169-1.777.373-3.078 1.542-3.679 5.48-.495 3.249 1.345 8.778l-1.55.776zm29.669-16.325 13.053-9.573 1.053 1.435-2.24 1.643q-1.493 1.095-1.61 1.755-.12.661.765 1.867l15.72 21.437q.94 1.283 1.524 1.355.782.104 1.988-.781l2.507-1.839 1.053 1.436-13.053 9.573-1.053-1.436 2.469-1.81q1.302-.955 1.404-1.619.102-.662-.839-1.946l-15.72-21.436q-.9-1.226-1.454-1.26-.858-.046-2.294 1.006l-2.22 1.628zm30.152-25.12 1.187-1.058 30.786 15.568q1.862.945 3.615-.619l.815-.727 1.185 1.328-10.448 9.325-1.185-1.328.832-.743q1.629-1.454 1.986-2.409.24-.659-.219-1.172-.27-.3-.693-.527l-7.14-3.617-10.342 9.23 1.623 4.278q.66 1.702 1.323 2.445.774.868 2.133.769 1.36-.1 2.9-1.474l.885-.79 1.186 1.327-9.492 8.471-1.185-1.328q1.522-1.36 1.815-2.813t-.623-3.978zm3.99 5.506 5.723 15.858 9.261-8.266z" style="font-style:normal;font-variant:normal;font-weight:400;font-stretch:normal;font-size:12px;line-height:125%;font-family:Century;-inkscape-font-specification:Century;text-align:start;writing-mode:lr-tb;text-anchor:start;display:inline;fill:#000;fill-opacity:1;stroke:none;stroke-width:1px;stroke-linecap:butt;stroke-linejoin:miter;stroke-opacity:1"/><circle id="bi" cx="22.627" cy="84.579" r="1.5" style="display:inline;fill:#000;stroke:none" transform="matrix(8.10158 0 0 8.10158 -271.078 -522.86)"/><use xlink:href="#bi" width="124" height="124" style="display:inline" transform="translate(324.387 -2.864)"/></g></g></svg>